<svg width="512" height="512" viewBox="0 0 512 512" fill="none" xmlns="http://www.w3.org/2000/svg">
<g clip-path="url(#clip0_1_707)">
<rect width="512" height="512" fill="white"/>
<rect width="512" height="512" fill="#111927"/>
<g clip-path="url(#clip1_1_707)">
<path d="M441 117H406.849H405.87H372.749H371.77H338.649H337.618H304.497H303.518H270.397H269.367H236.246H235.267H202.146H201.116H167.994H167.016H132.864V122.2H167.016H167.994H201.116H202.146H235.267H236.246H269.367H270.397H303.518H304.497H337.618H338.649H371.77H372.749H405.87H406.849H441V117Z" fill="#FDFBF5"/>
<path d="M108.397 180.271C108.963 180.271 109.478 180.065 109.89 179.653C110.303 179.241 110.766 178.469 111.281 177.388L127.559 142.586C127.868 141.917 128.074 141.402 128.177 141.042C128.28 140.681 128.331 140.321 128.331 140.012C128.331 139.24 128.022 138.571 127.353 138.004C126.683 137.438 125.962 137.181 125.086 137.181C124.519 137.181 124.004 137.387 123.592 137.799C123.18 138.21 122.717 138.983 122.201 140.115L105.976 174.865V174.968C105.409 176.101 105.151 176.924 105.151 177.491C105.151 178.263 105.461 178.932 106.13 179.499C106.8 180.065 107.521 180.322 108.397 180.322V180.271Z" fill="#FDFBF5"/>
<path d="M371.77 185.213H338.649H337.618H304.497H303.518H270.397H269.367H235.267V190.413H269.367H270.397H303.518H304.497H337.618H338.649H371.77H372.749H406.848V185.213H372.749H371.77Z" fill="#FDFBF5"/>
<path d="M432.192 137.129C431.625 137.129 431.11 137.335 430.698 137.747C430.286 138.159 429.822 138.931 429.307 140.064L413.081 174.814V174.917C412.515 176.049 412.257 176.873 412.257 177.439C412.257 178.211 412.566 178.881 413.236 179.447C413.905 180.013 414.627 180.271 415.502 180.271C416.069 180.271 416.584 180.065 416.996 179.653C417.408 179.241 417.872 178.469 418.387 177.388L434.664 142.586C434.973 141.917 435.179 141.402 435.282 141.042C435.385 140.681 435.437 140.321 435.437 140.012C435.437 139.24 435.128 138.571 434.458 138.004C433.788 137.438 433.067 137.181 432.192 137.181V137.129Z" fill="#FDFBF5"/>
<path d="M105.924 210.696L122.15 245.498C122.665 246.63 123.129 247.403 123.541 247.814C123.953 248.226 124.468 248.432 124.983 248.432C125.807 248.432 126.58 248.175 127.249 247.609C127.919 247.042 128.28 246.424 128.28 245.601C128.28 245.292 128.228 244.931 128.125 244.571C128.022 244.211 127.816 243.644 127.507 243.027L111.23 208.277C110.715 207.144 110.251 206.372 109.839 205.96C109.427 205.548 108.912 205.342 108.345 205.342C107.469 205.342 106.748 205.6 106.079 206.166C105.409 206.732 105.1 207.35 105.1 208.174C105.1 208.483 105.151 208.843 105.255 209.203C105.358 209.564 105.564 210.079 105.873 210.748L105.924 210.696Z" fill="#FDFBF5"/>
<path d="M167.994 258.626H201.116H202.146H235.267H236.246H269.367H270.397H304.497V253.374H270.397H269.367H236.246H235.267H202.146H201.116H167.994H167.016H132.864V258.626H167.016H167.994Z" fill="#FDFBF5"/>
<path d="M403.243 217.646C403.655 217.131 403.861 216.565 403.861 215.896C403.861 215.124 403.603 214.506 403.14 213.991C402.676 213.476 402.007 213.27 401.234 213.27C400.976 213.27 400.667 213.27 400.307 213.425C399.946 213.579 399.431 213.734 398.658 214.094L376.612 224.339L376.406 224.493C374.345 225.42 373.315 226.553 373.315 227.788C373.315 229.024 374.294 230.053 376.251 230.98C376.509 231.083 376.663 231.134 376.766 231.186L398.658 241.276C399.225 241.534 399.74 241.74 400.101 241.843C400.461 241.946 400.873 241.997 401.182 241.997C401.955 241.997 402.625 241.74 403.088 241.276C403.552 240.813 403.809 240.144 403.809 239.371C403.809 238.702 403.603 238.136 403.191 237.673C402.779 237.209 402.058 236.746 401.028 236.231L382.948 227.634L401.028 219.036C402.007 218.573 402.728 218.058 403.14 217.595L403.243 217.646Z" fill="#FDFBF5"/>
<path d="M108.397 316.645C108.963 316.645 109.478 316.439 109.89 316.027C110.303 315.616 110.766 314.843 111.281 313.762L127.559 278.961C127.868 278.291 128.074 277.777 128.177 277.416C128.28 277.056 128.331 276.696 128.331 276.387C128.331 275.614 128.022 274.945 127.353 274.379C126.683 273.813 125.962 273.555 125.086 273.555C124.519 273.555 124.004 273.761 123.592 274.173C123.18 274.585 122.717 275.357 122.201 276.49L105.976 311.24V311.343C105.409 312.475 105.151 313.299 105.151 313.865C105.151 314.637 105.461 315.307 106.13 315.873C106.8 316.439 107.521 316.697 108.397 316.697V316.645Z" fill="#FDFBF5"/>
<path d="M434.613 311.24L418.335 276.49C417.82 275.357 417.357 274.585 416.945 274.173C416.532 273.761 416.017 273.555 415.451 273.555C414.575 273.555 413.854 273.813 413.184 274.379C412.515 274.945 412.206 275.563 412.206 276.387C412.206 276.696 412.257 277.056 412.36 277.416C412.463 277.777 412.669 278.291 412.978 278.961L429.204 313.762C429.719 314.895 430.183 315.667 430.595 316.079C431.007 316.491 431.522 316.697 432.037 316.697C432.861 316.697 433.634 316.439 434.304 315.873C434.973 315.307 435.334 314.689 435.334 313.865C435.334 313.556 435.282 313.196 435.179 312.836C435.076 312.475 434.87 311.909 434.561 311.291L434.613 311.24Z" fill="#FDFBF5"/>
<path d="M90.9861 341.717C90.4195 341.717 89.9044 341.923 89.4923 342.334C89.0802 342.746 88.6166 343.519 88.1015 344.651L71.8242 379.453V379.556C71.2576 380.688 71 381.512 71 382.078C71 382.85 71.3091 383.52 71.9787 384.086C72.6483 384.652 73.3695 384.91 74.2452 384.91C74.8118 384.91 75.3269 384.704 75.739 384.292C76.1511 383.88 76.6146 383.108 77.1298 382.027L93.4071 347.225C93.7161 346.556 93.9222 346.041 94.0252 345.681C94.1282 345.32 94.1797 344.96 94.1797 344.651C94.1797 343.879 93.8707 343.21 93.201 342.643C92.5314 342.077 91.8102 341.82 90.9346 341.82L90.9861 341.717Z" fill="#FDFBF5"/>
<path d="M364.249 389.8H270.397H269.367H236.246H235.267H202.146H201.116H167.994H167.016H133.894H132.864H98.7642V395H132.864H133.894H167.016H167.994H201.116H202.146H235.267H236.246H269.367H270.397H364.249H365.28H399.379V389.8H365.28H364.249Z" fill="#FDFBF5"/>
<path d="M432.192 341.717C431.625 341.717 431.11 341.923 430.698 342.334C430.286 342.746 429.822 343.519 429.307 344.651L413.081 379.401V379.504C412.515 380.637 412.257 381.46 412.257 382.027C412.257 382.799 412.566 383.468 413.236 384.034C413.905 384.601 414.627 384.858 415.502 384.858C416.069 384.858 416.584 384.652 416.996 384.24C417.408 383.829 417.872 383.056 418.387 381.975L434.664 347.174C434.973 346.504 435.179 345.99 435.282 345.629C435.385 345.269 435.437 344.909 435.437 344.6C435.437 343.827 435.128 343.158 434.458 342.592C433.788 342.026 433.067 341.768 432.192 341.768V341.717Z" fill="#FDFBF5"/>
</g>
</g>
<defs>
<clipPath id="clip0_1_707">
<rect width="512" height="512" fill="white"/>
</clipPath>
<clipPath id="clip1_1_707">
<rect width="370" height="278" fill="white" transform="translate(71 117)"/>
</clipPath>
</defs>
</svg>
