<svg width="426" height="202" viewBox="0 0 426 202" fill="none" xmlns="http://www.w3.org/2000/svg">
<g clip-path="url(#clip0_4_2345)">
<path d="M120.874 4.08051H113.24H113.019H105.623H105.402H97.9886H97.7675H90.3716H90.1506H82.7376H82.5166H75.1206H74.8826H67.4866H67.2656H59.8527H59.6316H52.0146V5.23665H59.6316H59.8527H67.2656H67.4866H74.8826H75.1206H82.5166H82.7376H90.1506H90.3716H97.7675H97.9886H105.402H105.623H113.019H113.24H120.874V4.08051Z" fill="#111927"/>
<path d="M227.647 5.23665H235.281V4.08051H227.647H227.426H219.809V5.23665H227.426H227.647Z" fill="#111927"/>
<path d="M254.239 2.3293C254.63 2.3293 254.936 2.22729 255.174 2.00626C255.412 1.78523 255.531 1.5132 255.531 1.17315C255.531 0.833108 255.412 0.544071 255.174 0.323042C254.936 0.102013 254.63 0 254.239 0C253.848 0 253.542 0.102013 253.304 0.323042C253.066 0.544071 252.947 0.816106 252.947 1.15615C252.947 1.49619 253.066 1.78523 253.304 1.98926C253.542 2.19328 253.848 2.3123 254.239 2.3123V2.3293Z" fill="#111927"/>
<path d="M265.783 5.23665H273.417V4.08051H265.783H265.562H257.945V5.23665H265.562H265.783Z" fill="#111927"/>
<path d="M307.625 2.3293C308.016 2.3293 308.322 2.22729 308.56 2.00626C308.798 1.78523 308.917 1.5132 308.917 1.17315C308.917 0.833108 308.798 0.544071 308.56 0.323042C308.322 0.102013 308.016 0 307.625 0C307.234 0 306.928 0.102013 306.69 0.323042C306.452 0.544071 306.333 0.816106 306.333 1.15615C306.333 1.49619 306.452 1.78523 306.69 1.98926C306.928 2.19328 307.234 2.3123 307.625 2.3123V2.3293Z" fill="#111927"/>
<path d="M318.949 4.08051H311.332V5.23665H318.949H319.187H326.804V4.08051H319.187H318.949Z" fill="#111927"/>
<path d="M46.523 18.2264C46.659 18.2264 46.761 18.1754 46.863 18.0903C46.9651 18.0053 47.0671 17.8183 47.1691 17.5803L50.8075 9.79328C50.8756 9.64026 50.9266 9.52124 50.9436 9.45323C50.9606 9.38522 50.9776 9.30021 50.9776 9.2152C50.9776 9.04518 50.9096 8.89216 50.7565 8.77314C50.6035 8.65413 50.4335 8.58612 50.2465 8.58612C50.1105 8.58612 50.0084 8.63713 49.9064 8.72214C49.8044 8.80715 49.7024 8.99417 49.5834 9.24921L45.9449 17.0192C45.8259 17.2912 45.7749 17.4783 45.7749 17.5973C45.7749 17.7673 45.8429 17.9203 45.9959 18.0393C46.149 18.1584 46.319 18.2264 46.506 18.2264H46.523Z" fill="#111927"/>
<path d="M105.401 19.3315H97.9883H97.7673H90.3713H90.1503H82.7373H82.5163H74.8823V20.4876H82.5163H82.7373H90.1503H90.3713H97.7673H97.9883H105.401H105.622H113.239V19.3315H105.622H105.401Z" fill="#111927"/>
<path d="M118.901 8.56909C118.765 8.56909 118.663 8.6201 118.561 8.70511C118.459 8.79012 118.357 8.97714 118.238 9.23218L114.6 17.0022C114.481 17.2742 114.43 17.4612 114.43 17.5803C114.43 17.7503 114.498 17.9033 114.651 18.0223C114.804 18.1413 114.974 18.2093 115.161 18.2093C115.297 18.2093 115.399 18.1583 115.501 18.0733C115.603 17.9883 115.705 17.8013 115.807 17.5633L119.445 9.77625C119.513 9.62323 119.564 9.50421 119.581 9.4362C119.598 9.3682 119.615 9.28318 119.615 9.19817C119.615 9.02815 119.547 8.87513 119.394 8.75612C119.241 8.6371 119.071 8.56909 118.884 8.56909H118.901Z" fill="#111927"/>
<path d="M120.652 20.4876H128.286H128.507H136.124V19.3315H128.507H128.286H120.652V20.4876Z" fill="#111927"/>
<path d="M139.831 17.5803C140.222 17.5803 140.528 17.4783 140.766 17.2572C141.004 17.0362 141.123 16.7642 141.123 16.4241C141.123 16.0841 141.004 15.795 140.766 15.574C140.528 15.353 140.222 15.251 139.831 15.251C139.44 15.251 139.134 15.353 138.896 15.574C138.658 15.795 138.539 16.0671 138.539 16.4071C138.539 16.7472 138.658 17.0362 138.896 17.2402C139.134 17.4443 139.44 17.5633 139.831 17.5633V17.5803Z" fill="#111927"/>
<path d="M151.155 19.3315H143.538V20.4876H151.155H151.376H159.01V19.3315H151.376H151.155Z" fill="#111927"/>
<path d="M162.716 15.251C162.342 15.251 162.019 15.353 161.781 15.574C161.543 15.795 161.424 16.0671 161.424 16.4071C161.424 16.7471 161.543 17.0362 161.781 17.2402C162.019 17.4442 162.325 17.5632 162.716 17.5632C163.107 17.5632 163.413 17.4612 163.651 17.2402C163.889 17.0192 164.008 16.7471 164.008 16.4071C164.008 16.0671 163.889 15.778 163.651 15.557C163.413 15.336 163.107 15.2339 162.716 15.2339V15.251Z" fill="#111927"/>
<path d="M204.541 19.3315H197.145H196.924H189.511H189.29H181.894H181.673H174.039V20.4876H181.673H181.894H189.29H189.511H196.924H197.145H204.541H204.779H212.396V19.3315H204.779H204.541Z" fill="#111927"/>
<path d="M218.058 8.56909C217.922 8.56909 217.82 8.6201 217.718 8.70511C217.616 8.79012 217.514 8.97714 217.395 9.23218L213.756 17.0022C213.637 17.2742 213.586 17.4612 213.586 17.5803C213.586 17.7503 213.654 17.9033 213.807 18.0223C213.96 18.1413 214.13 18.2093 214.318 18.2093C214.454 18.2093 214.556 18.1583 214.658 18.0733C214.76 17.9883 214.862 17.8013 214.964 17.5633L218.602 9.77625C218.67 9.62323 218.721 9.50421 218.738 9.4362C218.755 9.3682 218.772 9.28318 218.772 9.19817C218.772 9.02815 218.704 8.87513 218.551 8.75612C218.398 8.6371 218.228 8.56909 218.041 8.56909H218.058Z" fill="#111927"/>
<path d="M239.583 7.66797H238.393V20.6236H239.583V7.66797Z" fill="#111927"/>
<path d="M250.532 19.3315H242.677V20.5046H250.532V19.3315Z" fill="#111927"/>
<path d="M254.834 7.66797H253.644V20.6236H254.834V7.66797Z" fill="#111927"/>
<path d="M277.701 7.66797H276.511V20.6236H277.701V7.66797Z" fill="#111927"/>
<path d="M288.447 19.3315H280.813V20.4876H288.447H288.668H296.302V19.3315H288.668H288.447Z" fill="#111927"/>
<path d="M308.22 7.66797H307.03V20.6236H308.22V7.66797Z" fill="#111927"/>
<path d="M318.949 19.3315H311.332V20.4876H318.949H319.187H326.804V19.3315H319.187H318.949Z" fill="#111927"/>
<path d="M331.105 7.66797H329.915V20.6236H331.105V7.66797Z" fill="#111927"/>
<path d="M357.085 19.3315H349.689H349.468H342.055H341.834H334.217V20.4876H341.834H342.055H349.468H349.689H357.085H357.323H364.94V19.3315H357.323H357.085Z" fill="#111927"/>
<path d="M45.9786 25.0442L49.6171 32.8312C49.7361 33.0863 49.8381 33.2563 49.9231 33.3413C50.0081 33.4263 50.1271 33.4773 50.2462 33.4773C50.4332 33.4773 50.6032 33.4093 50.7562 33.2903C50.9093 33.1713 50.9943 33.0183 50.9943 32.8482C50.9943 32.7802 50.9943 32.6952 50.9603 32.6102C50.9263 32.5252 50.8922 32.4062 50.8242 32.2532L47.1858 24.4832C47.0668 24.2281 46.9647 24.0581 46.8797 23.9561C46.7947 23.8541 46.6757 23.8201 46.5397 23.8201C46.3527 23.8201 46.1826 23.8881 46.0296 24.0071C45.8766 24.1261 45.8086 24.2791 45.8086 24.4491C45.8086 24.5172 45.8086 24.6022 45.8426 24.6872C45.8766 24.7722 45.9106 24.8912 45.9786 25.0272V25.0442Z" fill="#111927"/>
<path d="M59.8527 35.7556H67.2656H67.4866H74.8826H75.1206H82.5166H82.7376H90.3716V34.5825H82.7376H82.5166H75.1206H74.8826H67.4866H67.2656H59.8527H59.6316H52.0146V35.7556H59.6316H59.8527Z" fill="#111927"/>
<path d="M112.441 26.5914C112.526 26.4894 112.577 26.3534 112.577 26.2004C112.577 26.0304 112.526 25.8943 112.424 25.7753C112.322 25.6563 112.169 25.6223 111.998 25.6223C111.947 25.6223 111.879 25.6223 111.794 25.6563C111.709 25.6903 111.59 25.7243 111.42 25.8093L106.49 28.1046L106.439 28.1386C105.98 28.3427 105.742 28.5977 105.742 28.8697C105.742 29.1418 105.963 29.3798 106.405 29.5838C106.456 29.6008 106.49 29.6178 106.524 29.6348L111.42 31.8791C111.556 31.9301 111.658 31.9811 111.743 31.9981C111.828 32.0151 111.913 32.0321 111.981 32.0321C112.152 32.0321 112.305 31.9811 112.407 31.8791C112.509 31.7771 112.56 31.6241 112.56 31.4541C112.56 31.301 112.509 31.182 112.424 31.08C112.339 30.978 112.169 30.876 111.947 30.757L107.901 28.8357L111.947 26.9145C112.169 26.8125 112.322 26.6935 112.424 26.5914H112.441Z" fill="#111927"/>
<path d="M140.426 22.9189H139.236V35.8746H140.426V22.9189Z" fill="#111927"/>
<path d="M163.311 22.9189H162.121V35.8746H163.311V22.9189Z" fill="#111927"/>
<path d="M168.565 33.4773C168.701 33.4773 168.803 33.4263 168.905 33.3413C169.007 33.2563 169.109 33.0693 169.211 32.8313L172.849 25.0443C172.917 24.8912 172.968 24.7722 172.985 24.7042C173.002 24.6362 173.019 24.5512 173.019 24.4662C173.019 24.2962 172.951 24.1431 172.798 24.0241C172.645 23.9051 172.475 23.8371 172.288 23.8371C172.152 23.8371 172.05 23.8881 171.948 23.9731C171.846 24.0581 171.744 24.2451 171.625 24.5002L167.986 32.2702C167.867 32.5422 167.816 32.7292 167.816 32.8483C167.816 33.0183 167.884 33.1713 168.037 33.2903C168.19 33.4093 168.36 33.4773 168.548 33.4773H168.565Z" fill="#111927"/>
<path d="M210.985 32.2702L207.347 24.5002C207.228 24.2451 207.126 24.0751 207.041 23.9731C206.956 23.8711 206.837 23.8371 206.701 23.8371C206.514 23.8371 206.344 23.9051 206.191 24.0241C206.038 24.1431 205.97 24.2962 205.97 24.4662C205.97 24.5342 205.97 24.6192 206.004 24.7042C206.038 24.7892 206.072 24.9082 206.14 25.0443L209.778 32.8313C209.897 33.0863 209.999 33.2563 210.084 33.3413C210.169 33.4263 210.288 33.4773 210.407 33.4773C210.594 33.4773 210.764 33.4093 210.917 33.2903C211.07 33.1713 211.155 33.0183 211.155 32.8483C211.155 32.7803 211.155 32.6952 211.121 32.6102C211.087 32.5252 211.053 32.4062 210.985 32.2532V32.2702Z" fill="#111927"/>
<path d="M242.677 34.5825H235.06V35.7556H242.677H242.915H250.532V34.5825H242.915H242.677Z" fill="#111927"/>
<path d="M256.738 32.2702L253.099 24.5002C252.98 24.2451 252.878 24.0751 252.793 23.9731C252.708 23.8711 252.589 23.8371 252.453 23.8371C252.266 23.8371 252.096 23.9051 251.943 24.0241C251.79 24.1431 251.722 24.2962 251.722 24.4662C251.722 24.5342 251.722 24.6192 251.756 24.7042C251.79 24.7892 251.824 24.9082 251.892 25.0443L255.531 32.8313C255.65 33.0863 255.752 33.2563 255.837 33.3413C255.922 33.4263 256.041 33.4773 256.16 33.4773C256.347 33.4773 256.517 33.4093 256.67 33.2903C256.823 33.1713 256.908 33.0183 256.908 32.8483C256.908 32.7803 256.908 32.6952 256.874 32.6102C256.84 32.5252 256.806 32.4062 256.738 32.2532V32.2702Z" fill="#111927"/>
<path d="M277.701 22.9189H276.511V35.8746H277.701V22.9189Z" fill="#111927"/>
<path d="M302.508 32.2702L298.869 24.5002C298.75 24.2451 298.648 24.0751 298.563 23.9731C298.478 23.8711 298.359 23.8371 298.223 23.8371C298.036 23.8371 297.866 23.9051 297.713 24.0241C297.56 24.1431 297.492 24.2962 297.492 24.4662C297.492 24.5342 297.492 24.6192 297.526 24.7042C297.56 24.7892 297.594 24.9082 297.662 25.0443L301.301 32.8313C301.42 33.0863 301.522 33.2563 301.607 33.3413C301.692 33.4263 301.811 33.4773 301.93 33.4773C302.117 33.4773 302.287 33.4093 302.44 33.2903C302.593 33.1713 302.678 33.0183 302.678 32.8483C302.678 32.7803 302.678 32.6952 302.644 32.6102C302.61 32.5252 302.576 32.4062 302.508 32.2532V32.2702Z" fill="#111927"/>
<path d="M308.22 22.9189H307.03V35.8746H308.22V22.9189Z" fill="#111927"/>
<path d="M333.01 32.2702L329.371 24.5002C329.252 24.2451 329.15 24.0751 329.065 23.9731C328.98 23.8711 328.861 23.8371 328.725 23.8371C328.538 23.8371 328.368 23.9051 328.215 24.0241C328.062 24.1431 327.994 24.2962 327.994 24.4662C327.994 24.5342 327.994 24.6192 328.028 24.7042C328.062 24.7892 328.096 24.9082 328.164 25.0443L331.803 32.8313C331.922 33.0863 332.024 33.2563 332.109 33.3413C332.194 33.4263 332.313 33.4773 332.432 33.4773C332.619 33.4773 332.789 33.4093 332.942 33.2903C333.095 33.1713 333.18 33.0183 333.18 32.8483C333.18 32.7803 333.18 32.6952 333.146 32.6102C333.112 32.5252 333.078 32.4062 333.01 32.2532V32.2702Z" fill="#111927"/>
<path d="M342.055 35.7556H349.689V34.5825H342.055H341.834H334.217V35.7556H341.834H342.055Z" fill="#111927"/>
<path d="M371.146 32.2702L367.507 24.5002C367.388 24.2451 367.286 24.0751 367.201 23.9731C367.116 23.8711 366.997 23.8371 366.861 23.8371C366.674 23.8371 366.504 23.9051 366.351 24.0241C366.198 24.1431 366.13 24.2962 366.13 24.4662C366.13 24.5342 366.13 24.6192 366.164 24.7042C366.198 24.7892 366.232 24.9082 366.3 25.0443L369.938 32.8313C370.057 33.0863 370.159 33.2563 370.244 33.3413C370.329 33.4263 370.448 33.4773 370.567 33.4773C370.754 33.4773 370.925 33.4093 371.078 33.2903C371.231 33.1713 371.316 33.0183 371.316 32.8483C371.316 32.7803 371.316 32.6952 371.282 32.6102C371.248 32.5252 371.214 32.4062 371.146 32.2532V32.2702Z" fill="#111927"/>
<path d="M46.523 48.7283C46.659 48.7283 46.761 48.6773 46.863 48.5923C46.9651 48.5073 47.0671 48.3203 47.1691 48.0822L50.8075 40.2952C50.8756 40.1422 50.9266 40.0232 50.9436 39.9552C50.9606 39.8872 50.9776 39.8022 50.9776 39.7172C50.9776 39.5471 50.9096 39.3941 50.7565 39.2751C50.6035 39.1561 50.4335 39.0881 50.2465 39.0881C50.1105 39.0881 50.0084 39.1391 49.9064 39.2241C49.8044 39.3091 49.7024 39.4961 49.5834 39.7512L45.9449 47.5212C45.8259 47.7932 45.7749 47.9802 45.7749 48.0992C45.7749 48.2693 45.8429 48.4223 45.9959 48.5413C46.149 48.6603 46.319 48.7283 46.506 48.7283H46.523Z" fill="#111927"/>
<path d="M119.462 47.5212L115.824 39.7512C115.705 39.4961 115.603 39.3261 115.518 39.2241C115.433 39.1221 115.314 39.0881 115.178 39.0881C114.991 39.0881 114.821 39.1561 114.668 39.2751C114.515 39.3941 114.447 39.5471 114.447 39.7172C114.447 39.7852 114.447 39.8702 114.481 39.9552C114.515 40.0402 114.549 40.1592 114.617 40.2952L118.255 48.0822C118.374 48.3373 118.476 48.5073 118.561 48.5923C118.646 48.6773 118.765 48.7283 118.884 48.7283C119.071 48.7283 119.241 48.6603 119.394 48.5413C119.547 48.4223 119.632 48.2693 119.632 48.0992C119.632 48.0312 119.632 47.9462 119.598 47.8612C119.564 47.7762 119.53 47.6572 119.462 47.5042V47.5212Z" fill="#111927"/>
<path d="M128.507 51.0066H135.903H136.124H143.758V49.8334H136.124H135.903H128.507H128.286H120.652V51.0066H128.286H128.507Z" fill="#111927"/>
<path d="M163.311 38.1699H162.121V51.1256H163.311V38.1699Z" fill="#111927"/>
<path d="M193.813 38.1699H192.623V51.1256H193.813V38.1699Z" fill="#111927"/>
<path d="M218.602 47.5212L214.964 39.7512C214.845 39.4961 214.743 39.3261 214.658 39.2241C214.573 39.1221 214.454 39.0881 214.318 39.0881C214.13 39.0881 213.96 39.1561 213.807 39.2751C213.654 39.3941 213.586 39.5471 213.586 39.7172C213.586 39.7852 213.586 39.8702 213.62 39.9552C213.654 40.0402 213.688 40.1592 213.756 40.2952L217.395 48.0822C217.514 48.3373 217.616 48.5073 217.701 48.5923C217.786 48.6773 217.905 48.7283 218.024 48.7283C218.211 48.7283 218.381 48.6603 218.534 48.5413C218.687 48.4223 218.772 48.2693 218.772 48.0992C218.772 48.0312 218.772 47.9462 218.738 47.8612C218.704 47.7762 218.67 47.6572 218.602 47.5042V47.5212Z" fill="#111927"/>
<path d="M239.583 38.1699H238.393V51.1256H239.583V38.1699Z" fill="#111927"/>
<path d="M254.834 38.1699H253.644V51.1256H254.834V38.1699Z" fill="#111927"/>
<path d="M287.206 40.6353H285.794C285.556 40.6353 285.369 40.6863 285.284 40.7883C285.199 40.8903 285.131 41.0773 285.131 41.3153C285.131 41.5364 285.182 41.7064 285.284 41.8254C285.386 41.9444 285.522 41.9954 285.709 41.9954H285.726L284.808 44.0187L283.839 41.9954H283.924C284.111 41.9954 284.247 41.9444 284.349 41.8254C284.451 41.7064 284.502 41.5364 284.502 41.3153C284.502 41.0773 284.451 40.8903 284.349 40.7883C284.247 40.6863 284.077 40.6353 283.822 40.6353H282.19C281.918 40.6353 281.714 40.6863 281.595 40.7883C281.476 40.8903 281.425 41.0773 281.425 41.3153C281.425 41.5364 281.476 41.7064 281.595 41.8254C281.714 41.9444 281.867 41.9954 282.088 41.9954H282.19L283.958 45.2769V46.62H283.142C282.853 46.62 282.649 46.671 282.547 46.7731C282.445 46.8751 282.377 47.0451 282.377 47.2831C282.377 47.5212 282.445 47.7082 282.564 47.8102C282.683 47.9122 282.887 47.9632 283.159 47.9632H286.372C286.644 47.9632 286.848 47.9122 286.968 47.7932C287.087 47.6742 287.155 47.5042 287.155 47.2661C287.155 47.0281 287.104 46.8581 286.985 46.7561C286.865 46.654 286.661 46.603 286.389 46.603H285.573V45.0728L287.24 41.9614H287.342C287.563 41.9614 287.716 41.9104 287.835 41.7914C287.954 41.6724 288.005 41.5024 288.005 41.2813C288.005 41.0263 287.954 40.8563 287.835 40.7543C287.716 40.6523 287.529 40.6013 287.24 40.6013L287.206 40.6353Z" fill="#111927"/>
<path d="M310.125 47.5212L306.487 39.7512C306.368 39.4961 306.266 39.3261 306.181 39.2241C306.096 39.1221 305.976 39.0881 305.84 39.0881C305.653 39.0881 305.483 39.1561 305.33 39.2751C305.177 39.3941 305.109 39.5471 305.109 39.7172C305.109 39.7852 305.109 39.8702 305.143 39.9552C305.177 40.0402 305.211 40.1592 305.279 40.2952L308.918 48.0822C309.037 48.3373 309.139 48.5073 309.224 48.5923C309.309 48.6773 309.428 48.7283 309.547 48.7283C309.734 48.7283 309.904 48.6603 310.057 48.5413C310.21 48.4223 310.295 48.2693 310.295 48.0992C310.295 48.0312 310.295 47.9462 310.261 47.8612C310.227 47.7762 310.193 47.6572 310.125 47.5042V47.5212Z" fill="#111927"/>
<path d="M331.105 38.1699H329.915V51.1256H331.105V38.1699Z" fill="#111927"/>
<path d="M339.759 39.2241C339.657 39.3261 339.555 39.4961 339.436 39.7512L335.798 47.5212C335.679 47.7932 335.628 47.9802 335.628 48.0992C335.628 48.2693 335.696 48.4223 335.849 48.5413C336.002 48.6603 336.172 48.7283 336.359 48.7283C336.495 48.7283 336.597 48.6773 336.699 48.5923C336.801 48.5073 336.903 48.3203 337.005 48.0822L340.644 40.2952C340.712 40.1422 340.763 40.0232 340.78 39.9552C340.797 39.8872 340.814 39.8022 340.814 39.7172C340.814 39.5471 340.746 39.3941 340.593 39.2751C340.44 39.1561 340.27 39.0881 340.083 39.0881C339.947 39.0881 339.844 39.1391 339.742 39.2241H339.759Z" fill="#111927"/>
<path d="M357.085 49.8334H349.468V51.0066H357.085H357.323H364.94V49.8334H357.323H357.085Z" fill="#111927"/>
<path d="M378.779 47.5212L375.141 39.7512C375.022 39.4961 374.92 39.3261 374.835 39.2241C374.75 39.1221 374.631 39.0881 374.495 39.0881C374.308 39.0881 374.138 39.1561 373.985 39.2751C373.832 39.3941 373.764 39.5471 373.764 39.7172C373.764 39.7852 373.764 39.8702 373.798 39.9552C373.832 40.0402 373.866 40.1592 373.934 40.2952L377.572 48.0822C377.691 48.3373 377.793 48.5073 377.878 48.5923C377.963 48.6773 378.082 48.7283 378.201 48.7283C378.388 48.7283 378.558 48.6603 378.711 48.5413C378.864 48.4223 378.949 48.2693 378.949 48.0992C378.949 48.0312 378.949 47.9462 378.915 47.8612C378.881 47.7762 378.847 47.6572 378.779 47.5042V47.5212Z" fill="#111927"/>
<path d="M387.825 49.8334H379.97V51.0066H387.825V49.8334Z" fill="#111927"/>
<path d="M42.6295 54.322C42.4934 54.322 42.3914 54.373 42.2894 54.458C42.1874 54.543 42.0854 54.7301 41.9664 54.9851L38.3619 62.7721C38.2429 63.0441 38.1919 63.2312 38.1919 63.3502C38.1919 63.5202 38.2599 63.6732 38.4129 63.7922C38.5659 63.9113 38.736 63.9793 38.923 63.9793C39.059 63.9793 39.161 63.9283 39.263 63.8432C39.365 63.7582 39.4671 63.5712 39.5691 63.3332L43.2075 55.5462C43.2755 55.3932 43.3266 55.2741 43.3436 55.2061C43.3606 55.1381 43.3776 55.0531 43.3776 54.9681C43.3776 54.7981 43.3096 54.6451 43.1565 54.526C43.0035 54.407 42.8335 54.339 42.6465 54.339L42.6295 54.322Z" fill="#111927"/>
<path d="M90.1503 65.0844H82.7373H82.5163H75.1203H74.8823H67.4864H67.2653H59.8524H59.6313H52.2354H52.0144H44.3804V66.2576H52.0144H52.2354H59.6313H59.8524H67.2653H67.4864H74.8823H75.1203H82.5163H82.7373H90.1503H90.3713H97.9883V65.0844H90.3713H90.1503Z" fill="#111927"/>
<path d="M118.901 54.322C118.765 54.322 118.663 54.373 118.561 54.458C118.459 54.543 118.357 54.7301 118.238 54.9851L114.6 62.7551C114.481 63.0271 114.43 63.2142 114.43 63.3332C114.43 63.5032 114.498 63.6562 114.651 63.7752C114.804 63.8943 114.974 63.9623 115.161 63.9623C115.297 63.9623 115.399 63.9113 115.501 63.8263C115.603 63.7412 115.705 63.5542 115.807 63.3162L119.445 55.5292C119.513 55.3762 119.564 55.2571 119.581 55.1891C119.598 55.1211 119.615 55.0361 119.615 54.9511C119.615 54.7811 119.547 54.6281 119.394 54.509C119.241 54.39 119.071 54.322 118.884 54.322H118.901Z" fill="#111927"/>
<path d="M151.154 65.0844H143.758H143.537H136.124H135.903H128.286V66.2576H135.903H136.124H143.537H143.758H151.154H151.375H159.009V65.0844H151.375H151.154Z" fill="#111927"/>
<path d="M163.311 53.4379H162.121V66.3936H163.311V53.4379Z" fill="#111927"/>
<path d="M181.673 65.0844H174.26H174.039H166.422V66.2576H174.039H174.26H181.673H181.894H189.511V65.0844H181.894H181.673Z" fill="#111927"/>
<path d="M193.813 53.4379H192.623V66.3936H193.813V53.4379Z" fill="#111927"/>
<path d="M218.058 54.322C217.922 54.322 217.82 54.373 217.718 54.458C217.616 54.543 217.514 54.7301 217.395 54.9851L213.756 62.7551C213.637 63.0271 213.586 63.2142 213.586 63.3332C213.586 63.5032 213.654 63.6562 213.807 63.7752C213.96 63.8943 214.13 63.9623 214.318 63.9623C214.454 63.9623 214.556 63.9113 214.658 63.8263C214.76 63.7412 214.862 63.5542 214.964 63.3162L218.602 55.5292C218.67 55.3762 218.721 55.2571 218.738 55.1891C218.755 55.1211 218.772 55.0361 218.772 54.9511C218.772 54.7811 218.704 54.6281 218.551 54.509C218.398 54.39 218.228 54.322 218.041 54.322H218.058Z" fill="#111927"/>
<path d="M227.426 65.0844H219.809V66.2576H227.426H227.647H235.281V65.0844H227.647H227.426Z" fill="#111927"/>
<path d="M239.583 53.4379H238.393V66.3936H239.583V53.4379Z" fill="#111927"/>
<path d="M254.834 53.4379H253.644V66.3936H254.834V53.4379Z" fill="#111927"/>
<path d="M273.196 65.0844H265.783H265.562H257.945V66.2576H265.562H265.783H273.196H273.417H281.051V65.0844H273.417H273.196Z" fill="#111927"/>
<path d="M285.336 53.4379H284.146V66.3936H285.336V53.4379Z" fill="#111927"/>
<path d="M309.581 54.322C309.445 54.322 309.343 54.373 309.241 54.458C309.139 54.543 309.037 54.7301 308.918 54.9851L305.279 62.7551C305.16 63.0271 305.109 63.2142 305.109 63.3332C305.109 63.5032 305.177 63.6562 305.33 63.7752C305.483 63.8943 305.653 63.9623 305.84 63.9623C305.976 63.9623 306.079 63.9113 306.181 63.8263C306.283 63.7412 306.385 63.5542 306.487 63.3162L310.125 55.5292C310.193 55.3762 310.244 55.2571 310.261 55.1891C310.278 55.1211 310.295 55.0361 310.295 54.9511C310.295 54.7811 310.227 54.6281 310.074 54.509C309.921 54.39 309.751 54.322 309.564 54.322H309.581Z" fill="#111927"/>
<path d="M318.949 65.0844H311.332V66.2576H318.949H319.187H326.804V65.0844H319.187H318.949Z" fill="#111927"/>
<path d="M331.785 57.1954C331.87 57.0424 331.989 56.8383 332.125 56.6003C332.329 56.2603 332.431 56.0562 332.431 55.9542C332.431 55.8522 332.397 55.8012 332.346 55.7332C332.295 55.6652 332.21 55.6482 332.142 55.6482C331.955 55.6482 331.734 55.7502 331.479 55.9542C331.224 56.1583 330.935 56.4473 330.629 56.8383C330.153 57.4334 329.796 58.0455 329.575 58.6916C329.354 59.3377 329.218 60.0008 329.218 60.6978C329.218 61.4629 329.354 62.194 329.643 62.9081C329.932 63.6222 330.357 64.2853 330.918 64.9144C331.156 65.1864 331.394 65.3905 331.598 65.5265C331.802 65.6625 332.006 65.7305 332.159 65.7305C332.227 65.7305 332.295 65.6965 332.346 65.6455C332.397 65.5945 332.431 65.5265 332.431 65.4415C332.431 65.3565 332.329 65.1184 332.108 64.7444C331.887 64.3703 331.717 64.0473 331.581 63.7922C331.326 63.2822 331.156 62.7891 331.037 62.2791C330.918 61.769 330.85 61.2419 330.85 60.7148C330.85 60.1198 330.918 59.5417 331.071 58.9806C331.224 58.4196 331.462 57.8245 331.802 57.2124L331.785 57.1954Z" fill="#111927"/>
<path d="M357.085 65.0844H349.689H349.468H342.055H341.834H334.217V66.2576H341.834H342.055H349.468H349.689H357.085H357.323H364.94V65.0844H357.323H357.085Z" fill="#111927"/>
<path d="M385.852 54.322C385.716 54.322 385.614 54.373 385.512 54.458C385.41 54.543 385.308 54.7301 385.189 54.9851L381.551 62.7551C381.432 63.0271 381.381 63.2142 381.381 63.3332C381.381 63.5032 381.449 63.6562 381.602 63.7752C381.755 63.8943 381.925 63.9623 382.112 63.9623C382.248 63.9623 382.35 63.9113 382.452 63.8263C382.554 63.7412 382.656 63.5542 382.758 63.3162L386.397 55.5292C386.465 55.3762 386.516 55.2571 386.533 55.1891C386.55 55.1211 386.567 55.0361 386.567 54.9511C386.567 54.7811 386.499 54.6281 386.345 54.509C386.192 54.39 386.022 54.322 385.835 54.322H385.852Z" fill="#111927"/>
<path d="M104.194 78.0231L100.556 70.2531C100.437 69.9981 100.335 69.8281 100.25 69.726C100.165 69.624 100.046 69.59 99.9098 69.59C99.7228 69.59 99.5528 69.658 99.3997 69.7771C99.2467 69.8961 99.1787 70.0491 99.1787 70.2191C99.1787 70.2871 99.1787 70.3721 99.2127 70.4571C99.2467 70.5421 99.2807 70.6612 99.3487 70.7972L102.987 78.5842C103.106 78.8392 103.208 79.0092 103.293 79.0943C103.378 79.1793 103.497 79.2303 103.616 79.2303C103.803 79.2303 103.973 79.1623 104.126 79.0433C104.279 78.9242 104.364 78.7712 104.364 78.6012C104.364 78.5332 104.364 78.4482 104.33 78.3632C104.296 78.2781 104.262 78.1591 104.194 78.0061V78.0231Z" fill="#111927"/>
<path d="M111.284 69.573C111.148 69.573 111.046 69.624 110.944 69.709C110.842 69.794 110.74 69.9811 110.621 70.2361L106.983 78.0061C106.864 78.2781 106.812 78.4652 106.812 78.5842C106.812 78.7542 106.881 78.9072 107.034 79.0262C107.187 79.1452 107.357 79.2133 107.544 79.2133C107.68 79.2133 107.782 79.1622 107.884 79.0772C107.986 78.9922 108.088 78.8052 108.19 78.5672L111.828 70.7802C111.896 70.6271 111.947 70.5081 111.964 70.4401C111.981 70.3721 111.998 70.2871 111.998 70.2021C111.998 70.0321 111.93 69.879 111.777 69.76C111.624 69.641 111.454 69.573 111.267 69.573H111.284Z" fill="#111927"/>
<path d="M119.462 78.0231L115.824 70.2531C115.705 69.9981 115.603 69.8281 115.518 69.726C115.433 69.624 115.314 69.59 115.178 69.59C114.991 69.59 114.821 69.658 114.668 69.7771C114.515 69.8961 114.447 70.0491 114.447 70.2191C114.447 70.2871 114.447 70.3721 114.481 70.4571C114.515 70.5421 114.549 70.6612 114.617 70.7972L118.255 78.5842C118.374 78.8392 118.476 79.0092 118.561 79.0943C118.646 79.1793 118.765 79.2303 118.884 79.2303C119.071 79.2303 119.241 79.1623 119.394 79.0433C119.547 78.9242 119.632 78.7712 119.632 78.6012C119.632 78.5332 119.632 78.4482 119.598 78.3632C119.564 78.2781 119.53 78.1591 119.462 78.0061V78.0231Z" fill="#111927"/>
<path d="M126.535 69.573C126.399 69.573 126.297 69.624 126.195 69.709C126.093 69.794 125.991 69.9811 125.872 70.2361L122.233 78.0061C122.114 78.2781 122.063 78.4652 122.063 78.5842C122.063 78.7542 122.131 78.9072 122.285 79.0262C122.438 79.1452 122.608 79.2133 122.795 79.2133C122.931 79.2133 123.033 79.1622 123.135 79.0772C123.237 78.9922 123.339 78.8052 123.441 78.5672L127.079 70.7802C127.147 70.6271 127.198 70.5081 127.215 70.4401C127.232 70.3721 127.249 70.2871 127.249 70.2021C127.249 70.0321 127.181 69.879 127.028 69.76C126.875 69.641 126.705 69.573 126.518 69.573H126.535Z" fill="#111927"/>
<path d="M203.351 78.0231L199.713 70.2531C199.594 69.9981 199.492 69.8281 199.407 69.726C199.322 69.624 199.203 69.59 199.067 69.59C198.88 69.59 198.71 69.658 198.556 69.7771C198.403 69.8961 198.335 70.0491 198.335 70.2191C198.335 70.2871 198.335 70.3721 198.369 70.4571C198.403 70.5421 198.437 70.6612 198.505 70.7972L202.144 78.5842C202.263 78.8392 202.365 79.0092 202.45 79.0943C202.535 79.1793 202.654 79.2303 202.773 79.2303C202.96 79.2303 203.13 79.1623 203.283 79.0433C203.436 78.9242 203.521 78.7712 203.521 78.6012C203.521 78.5332 203.521 78.4482 203.487 78.3632C203.453 78.2781 203.419 78.1591 203.351 78.0061V78.0231Z" fill="#111927"/>
<path d="M210.441 69.573C210.305 69.573 210.203 69.624 210.101 69.709C209.999 69.794 209.897 69.9811 209.778 70.2361L206.14 78.0061C206.021 78.2781 205.97 78.4652 205.97 78.5842C205.97 78.7542 206.038 78.9072 206.191 79.0262C206.344 79.1452 206.514 79.2133 206.701 79.2133C206.837 79.2133 206.939 79.1622 207.041 79.0772C207.143 78.9922 207.245 78.8052 207.347 78.5672L210.985 70.7802C211.053 70.6271 211.104 70.5081 211.121 70.4401C211.138 70.3721 211.155 70.2871 211.155 70.2021C211.155 70.0321 211.087 69.879 210.934 69.76C210.781 69.641 210.611 69.573 210.424 69.573H210.441Z" fill="#111927"/>
<path d="M294.874 78.0231L291.236 70.2531C291.117 69.9981 291.015 69.8281 290.93 69.726C290.845 69.624 290.726 69.59 290.59 69.59C290.402 69.59 290.232 69.658 290.079 69.7771C289.926 69.8961 289.858 70.0491 289.858 70.2191C289.858 70.2871 289.858 70.3721 289.892 70.4571C289.926 70.5421 289.96 70.6612 290.028 70.7972L293.667 78.5842C293.786 78.8392 293.888 79.0092 293.973 79.0943C294.058 79.1793 294.177 79.2303 294.296 79.2303C294.483 79.2303 294.653 79.1623 294.806 79.0433C294.959 78.9242 295.044 78.7712 295.044 78.6012C295.044 78.5332 295.044 78.4482 295.01 78.3632C294.976 78.2781 294.942 78.1591 294.874 78.0061V78.0231Z" fill="#111927"/>
<path d="M301.964 69.573C301.828 69.573 301.726 69.624 301.624 69.709C301.522 69.794 301.42 69.9811 301.301 70.2361L297.662 78.0061C297.543 78.2781 297.492 78.4652 297.492 78.5842C297.492 78.7542 297.56 78.9072 297.713 79.0262C297.866 79.1452 298.036 79.2133 298.223 79.2133C298.359 79.2133 298.461 79.1622 298.563 79.0772C298.665 78.9922 298.767 78.8052 298.869 78.5672L302.508 70.7802C302.576 70.6271 302.627 70.5081 302.644 70.4401C302.661 70.3721 302.678 70.2871 302.678 70.2021C302.678 70.0321 302.61 69.879 302.457 69.76C302.304 69.641 302.134 69.573 301.947 69.573H301.964Z" fill="#111927"/>
<path d="M371.146 78.0231L367.507 70.2531C367.388 69.9981 367.286 69.8281 367.201 69.726C367.116 69.624 366.997 69.59 366.861 69.59C366.674 69.59 366.504 69.658 366.351 69.7771C366.198 69.8961 366.13 70.0491 366.13 70.2191C366.13 70.2871 366.13 70.3721 366.164 70.4571C366.198 70.5421 366.232 70.6612 366.3 70.7972L369.938 78.5842C370.057 78.8392 370.159 79.0092 370.244 79.0943C370.329 79.1793 370.448 79.2303 370.567 79.2303C370.754 79.2303 370.925 79.1623 371.078 79.0433C371.231 78.9242 371.316 78.7712 371.316 78.6012C371.316 78.5332 371.316 78.4482 371.282 78.3632C371.248 78.2781 371.214 78.1591 371.146 78.0061V78.0231Z" fill="#111927"/>
<path d="M378.235 69.573C378.099 69.573 377.997 69.624 377.895 69.709C377.793 69.794 377.691 69.9811 377.572 70.2361L373.934 78.0061C373.815 78.2781 373.764 78.4652 373.764 78.5842C373.764 78.7542 373.832 78.9072 373.985 79.0262C374.138 79.1452 374.308 79.2133 374.495 79.2133C374.631 79.2133 374.733 79.1622 374.835 79.0772C374.937 78.9922 375.039 78.8052 375.141 78.5672L378.779 70.7802C378.847 70.6271 378.898 70.5081 378.915 70.4401C378.932 70.3721 378.949 70.2871 378.949 70.2021C378.949 70.0321 378.881 69.879 378.728 69.76C378.575 69.641 378.405 69.573 378.218 69.573H378.235Z" fill="#111927"/>
</g>
<path d="M219 106.23L207 118.23M207 106.23L219 118.23" stroke="black" stroke-width="2" stroke-linecap="round" stroke-linejoin="round"/>
<g clip-path="url(#clip1_4_2345)">
<path d="M271.394 164.066H230.549C230.549 153.673 222.127 145.23 211.714 145.23C201.3 145.23 192.878 153.652 192.878 164.066H154.606C144.192 164.066 135.77 172.488 135.77 182.881C135.77 193.273 144.192 201.716 154.606 201.716H271.415C281.808 201.716 290.251 193.294 290.251 182.881C290.251 172.488 281.829 164.045 271.415 164.045L271.394 164.066Z" fill="#111927"/>
</g>
<defs>
<clipPath id="clip0_4_2345">
<rect width="349.65" height="79.2302" fill="white" transform="translate(38.1748)"/>
</clipPath>
<clipPath id="clip1_4_2345">
<rect width="154.46" height="56.486" fill="white" transform="translate(135.77 145.23)"/>
</clipPath>
</defs>
</svg>
