<svg width="750" height="106" viewBox="0 0 750 106" fill="none" xmlns="http://www.w3.org/2000/svg">
<g clip-path="url(#clip0_5_392)">
<path d="M92.6457 42.0107L18.1374 1.20728H0.765625V61.3063H19.0031V20.5028L93.5114 61.3063H110.883V1.20728H92.6457V42.0107Z" stroke="#5DD4AE" stroke-width="0.64" stroke-miterlimit="10"/>
<path d="M126.697 61.3156H228.042V46.8102H144.05V38.3071H219.347V24.3982H144.05V15.7219H228.042V1.21655H126.697V61.3156Z" stroke="#5DD4AE" stroke-width="0.64" stroke-miterlimit="10"/>
<path d="M237.507 17.2802H279.542V61.3156H297.779V17.2802H339.814V1.21655H237.507V17.2802Z" stroke="#5DD4AE" stroke-width="0.64" stroke-miterlimit="10"/>
<path d="M443.409 23.8787H369.767V1.21655H351.529V61.3156H369.767V39.0766H443.409V61.3156H461.647V1.21655H443.409V23.8787Z" stroke="#5DD4AE" stroke-width="0.64" stroke-miterlimit="10"/>
<path d="M573.015 41.7699C577.382 39.8654 580.441 37.326 582.173 34.171C583.904 31.0159 584.77 27.38 584.77 23.2631V23.1669C584.77 16.5106 582.577 11.1817 578.171 7.18024C573.766 3.17877 566.109 1.19727 555.163 1.19727H477.441V61.3156H494.813V44.6363H555.163C555.374 44.6363 555.567 44.6363 555.778 44.6363L566.436 61.3156H586.232L572.919 41.8084C572.919 41.8084 572.958 41.8084 572.977 41.7891L573.015 41.7699ZM494.813 16.5875H555.163C559.741 16.5875 562.915 17.107 564.724 18.1458C566.532 19.1847 567.417 20.8776 567.417 23.1861V23.2823C567.417 25.5909 566.513 27.2838 564.724 28.3226C562.935 29.3615 559.741 29.8809 555.163 29.8809H494.813V16.5875Z" stroke="#5DD4AE" stroke-width="0.64" stroke-miterlimit="10"/>
<path d="M616.397 1.21655H598.159V61.3156H616.397V1.21655Z" stroke="#5DD4AE" stroke-width="0.64" stroke-miterlimit="10"/>
<path d="M696.042 1.21655H679.189L626.728 61.3156H646.696L655.642 50.9849H719.55L728.496 61.3156H748.465L696.042 1.21655ZM667.646 37.249L687.615 14.2406L707.584 37.249H667.627H667.646Z" stroke="#5DD4AE" stroke-width="0.64" stroke-miterlimit="10"/>
<path d="M217.345 99.8975L213.806 95.5112V90.5094H215.883V94.761L218.346 97.8198H218.384L220.885 94.5493V90.5094H222.963V95.2611L219.423 99.8975V105.092H217.345V99.8975Z" fill="#5DD4AE"/>
<path d="M226.311 94.2701C226.311 92.1924 228.003 90.5187 230.062 90.5187H231.736C233.813 90.5187 235.487 92.1924 235.487 94.2701V101.33C235.487 103.389 233.813 105.101 231.736 105.101H230.062C228.003 105.101 226.311 103.389 226.311 101.33V94.2701ZM233.39 101.33V94.2701C233.39 93.3274 232.659 92.5964 231.716 92.5964H230.043C229.1 92.5964 228.369 93.3466 228.369 94.2701V101.33C228.369 102.254 229.119 103.004 230.043 103.004H231.716C232.64 103.004 233.39 102.254 233.39 101.33Z" fill="#5DD4AE"/>
<path d="M244.221 105.101H242.547C240.47 105.101 238.796 103.389 238.796 101.33V90.5187H240.874V101.33C240.874 102.254 241.624 103.004 242.547 103.004H244.221C245.144 103.004 245.895 102.254 245.895 101.33V90.5187H247.972V101.33C247.972 103.389 246.279 105.101 244.221 105.101Z" fill="#5DD4AE"/>
<path d="M258.187 105.101L255.552 99.2719H253.397V105.101H251.319V90.5187H256.725C258.803 90.5187 260.477 92.1924 260.477 94.2701V95.5205C260.477 97.2519 259.322 98.6948 257.745 99.118L260.477 105.101H258.187ZM256.725 97.1942C257.668 97.1942 258.399 96.4632 258.399 95.5205V94.2701C258.399 93.3274 257.668 92.5964 256.725 92.5964H253.397V97.175H256.725V97.1942Z" fill="#5DD4AE"/>
<path d="M281.715 99.2527H278.387V105.082H276.31V90.4995H281.715C283.793 90.4995 285.467 92.1732 285.467 94.2509V95.5014C285.467 97.579 283.793 99.2527 281.715 99.2527ZM281.715 97.175C282.658 97.175 283.389 96.444 283.389 95.5014V94.2509C283.389 93.3082 282.658 92.5772 281.715 92.5772H278.387V97.1558H281.715V97.175Z" fill="#5DD4AE"/>
<path d="M297.972 92.5964H290.892V96.4055H297.144V98.4832H290.892V103.004H297.972V105.082H288.814V90.4995H297.972V92.5772V92.5964Z" fill="#5DD4AE"/>
<path d="M308.168 105.101L305.532 99.2719H303.377V105.101H301.3V90.5187H306.706C308.783 90.5187 310.457 92.1924 310.457 94.2701V95.5205C310.457 97.2519 309.303 98.6948 307.725 99.118L310.457 105.101H308.168ZM306.706 97.1942C307.648 97.1942 308.379 96.4632 308.379 95.5205V94.2701C308.379 93.3274 307.648 92.5964 306.706 92.5964H303.377V97.175H306.706V97.1942Z" fill="#5DD4AE"/>
<path d="M315.881 100.388V101.215C315.881 102.196 316.689 103.004 317.671 103.004H319.075C320.133 103.004 320.883 102.331 320.883 101.427C320.883 98.5602 314.015 97.9253 314.015 93.9623C314.015 91.9231 315.612 90.4995 317.882 90.4995H318.863C321.018 90.4995 322.749 92.2309 322.749 94.3663V95.0012H320.672V94.3663C320.672 93.366 319.864 92.5772 318.863 92.5772H317.882C316.766 92.5772 316.093 93.0966 316.093 93.9431C316.093 96.1554 322.961 97.0019 322.961 101.407C322.961 103.485 321.268 105.082 319.075 105.082H317.671C315.516 105.082 313.804 103.35 313.804 101.215V100.388H315.881Z" fill="#5DD4AE"/>
<path d="M326.309 94.2701C326.309 92.1924 328.002 90.5187 330.06 90.5187H331.734C333.811 90.5187 335.485 92.1924 335.485 94.2701V101.33C335.485 103.389 333.811 105.101 331.734 105.101H330.06C328.002 105.101 326.309 103.389 326.309 101.33V94.2701ZM333.388 101.33V94.2701C333.388 93.3274 332.657 92.5964 331.714 92.5964H330.041C329.098 92.5964 328.367 93.3466 328.367 94.2701V101.33C328.367 102.254 329.117 103.004 330.041 103.004H331.714C332.638 103.004 333.388 102.254 333.388 101.33Z" fill="#5DD4AE"/>
<path d="M347.971 90.5187V105.101H344.95L340.891 94.02V105.101H338.813V90.5187H341.834L345.893 101.6V90.5187H347.971Z" fill="#5DD4AE"/>
<path d="M351.299 105.101V100.311L354.839 90.5187H356.916L360.456 100.311V105.101H358.378V101.734H353.377V105.101H351.299ZM358.013 99.6374L355.916 93.8083H355.877L353.781 99.6374H358.032H358.013Z" fill="#5DD4AE"/>
<path d="M365.881 103.004H372.961V105.082H363.804V90.4995H365.881V103.004Z" fill="#5DD4AE"/>
<path d="M388.793 105.101V100.311L392.333 90.5187H394.41L397.95 100.311V105.101H395.872V101.734H390.871V105.101H388.793ZM395.507 99.6374L393.41 93.8083H393.372L391.275 99.6374H395.526H395.507Z" fill="#5DD4AE"/>
<path d="M403.376 100.388V101.215C403.376 102.196 404.184 103.004 405.165 103.004H406.569C407.627 103.004 408.377 102.331 408.377 101.427C408.377 98.5602 401.509 97.9253 401.509 93.9623C401.509 91.9231 403.106 90.4995 405.376 90.4995H406.357C408.512 90.4995 410.243 92.2309 410.243 94.3663V95.0012H408.166V94.3663C408.166 93.366 407.358 92.5772 406.357 92.5772H405.376C404.26 92.5772 403.587 93.0966 403.587 93.9431C403.587 96.1554 410.455 97.0019 410.455 101.407C410.455 103.485 408.762 105.082 406.569 105.082H405.165C403.01 105.082 401.298 103.35 401.298 101.215V100.388H403.376Z" fill="#5DD4AE"/>
<path d="M415.88 100.388V101.215C415.88 102.196 416.688 103.004 417.67 103.004H419.074C420.132 103.004 420.882 102.331 420.882 101.427C420.882 98.5602 414.014 97.9253 414.014 93.9623C414.014 91.9231 415.611 90.4995 417.881 90.4995H418.862C421.017 90.4995 422.748 92.2309 422.748 94.3663V95.0012H420.671V94.3663C420.671 93.366 419.863 92.5772 418.862 92.5772H417.881C416.765 92.5772 416.092 93.0966 416.092 93.9431C416.092 96.1554 422.96 97.0019 422.96 101.407C422.96 103.485 421.267 105.082 419.074 105.082H417.67C415.515 105.082 413.803 103.35 413.803 101.215V100.388H415.88Z" fill="#5DD4AE"/>
<path d="M435.445 90.5187V92.5964H431.906V103.004H435.445V105.082H426.288V103.004H429.828V92.5964H426.288V90.5187H435.445Z" fill="#5DD4AE"/>
<path d="M440.87 100.388V101.215C440.87 102.196 441.678 103.004 442.659 103.004H444.063C445.121 103.004 445.872 102.331 445.872 101.427C445.872 98.5602 439.004 97.9253 439.004 93.9623C439.004 91.9231 440.6 90.4995 442.87 90.4995H443.852C446.006 90.4995 447.738 92.2309 447.738 94.3663V95.0012H445.66V94.3663C445.66 93.366 444.852 92.5772 443.852 92.5772H442.87C441.755 92.5772 441.081 93.0966 441.081 93.9431C441.081 96.1554 447.949 97.0019 447.949 101.407C447.949 103.485 446.256 105.082 444.063 105.082H442.659C440.504 105.082 438.792 103.35 438.792 101.215V100.388H440.87Z" fill="#5DD4AE"/>
<path d="M460.454 90.5187V92.5964H456.914V105.101H454.837V92.5964H451.297V90.5187H460.454Z" fill="#5DD4AE"/>
<path d="M463.782 105.101V100.311L467.322 90.5187H469.4L472.939 100.311V105.101H470.862V101.734H465.86V105.101H463.782ZM470.496 99.6374L468.399 93.8083H468.361L466.264 99.6374H470.515H470.496Z" fill="#5DD4AE"/>
<path d="M485.444 90.5187V105.101H482.424L478.365 94.02V105.101H476.287V90.5187H479.307L483.367 101.6V90.5187H485.444Z" fill="#5DD4AE"/>
<path d="M497.949 90.5187V92.5964H494.409V105.101H492.332V92.5964H488.792V90.5187H497.949Z" fill="#5DD4AE"/>
<path d="M513.781 105.101V100.311L517.321 90.5187H519.399L522.938 100.311V105.101H520.861V101.734H515.859V105.101H513.781ZM520.495 99.6374L518.398 93.8083H518.36L516.263 99.6374H520.515H520.495Z" fill="#5DD4AE"/>
<path d="M535.443 90.5187V92.5964H531.904V103.004H535.443V105.082H526.286V103.004H529.826V92.5964H526.286V90.5187H535.443Z" fill="#5DD4AE"/>
</g>
<defs>
<clipPath id="clip0_5_392">
<rect width="749.7" height="104.5" fill="white" transform="translate(0.149902 0.600952)"/>
</clipPath>
</defs>
</svg>
