<svg width="684" height="155" viewBox="0 0 684 155" fill="none" xmlns="http://www.w3.org/2000/svg">
<g clip-path="url(#clip0_5_625)">
<path d="M27.9253 8.05615H43.2364V10.3291H27.9253V8.05615Z" fill="#75FFBD"/>
<path d="M42.8027 8.05615H58.1139V10.3291H42.8027V8.05615Z" fill="#75FFBD"/>
<path d="M57.6802 8.05615H72.9913V10.3291H57.6802V8.05615Z" fill="#75FFBD"/>
<path d="M72.5571 8.05615H87.8683V10.3291H72.5571V8.05615Z" fill="#75FFBD"/>
<path d="M87.4551 8.05615H102.766V10.3291H87.4551V8.05615Z" fill="#75FFBD"/>
<path d="M102.332 8.05615H117.643V10.3291H102.332V8.05615Z" fill="#75FFBD"/>
<path d="M117.209 8.05615H132.52V10.3291H117.209V8.05615Z" fill="#75FFBD"/>
<path d="M132.087 8.05615H147.398V10.3291H132.087V8.05615Z" fill="#75FFBD"/>
<path d="M146.964 8.05615H162.275V10.3291H146.964V8.05615Z" fill="#75FFBD"/>
<path d="M355.286 8.05615H370.597V10.3291H355.286V8.05615Z" fill="#75FFBD"/>
<path d="M370.163 8.05615H385.474V10.3291H370.163V8.05615Z" fill="#75FFBD"/>
<path d="M422.44 0.101074C423.204 0.101074 423.804 0.307702 424.279 0.720958C424.754 1.13421 424.981 1.69211 424.981 2.37398C424.981 3.05585 424.754 3.59308 424.279 4.00634C423.804 4.4196 423.204 4.64689 422.44 4.64689C421.675 4.64689 421.097 4.44026 420.621 4.00634C420.146 3.57242 419.919 3.03519 419.919 2.37398C419.919 1.71277 420.146 1.15488 420.621 0.74162C421.097 0.328365 421.696 0.101074 422.44 0.101074Z" fill="#75FFBD"/>
<path d="M429.672 8.05615H444.983V10.3291H429.672V8.05615Z" fill="#75FFBD"/>
<path d="M444.55 8.05615H459.861V10.3291H444.55V8.05615Z" fill="#75FFBD"/>
<path d="M526.601 0.101074C527.365 0.101074 527.965 0.307702 528.44 0.720958C528.915 1.13421 529.142 1.69211 529.142 2.37398C529.142 3.05585 528.915 3.59308 528.44 4.00634C527.965 4.4196 527.365 4.64689 526.601 4.64689C525.836 4.64689 525.258 4.44026 524.783 4.00634C524.307 3.57242 524.08 3.03519 524.08 2.37398C524.08 1.71277 524.307 1.15488 524.783 0.74162C525.258 0.328365 525.857 0.101074 526.601 0.101074Z" fill="#75FFBD"/>
<path d="M533.833 8.05615H549.144V10.3291H533.833V8.05615Z" fill="#75FFBD"/>
<path d="M548.71 8.05615H564.021V10.3291H548.71V8.05615Z" fill="#75FFBD"/>
<path d="M25.5909 19.1934L18.5035 34.3806C18.2763 34.8559 18.0903 35.1865 17.9043 35.3724C17.7184 35.5584 17.4911 35.6411 17.2431 35.6411C16.8712 35.6411 16.5406 35.5171 16.2513 35.2898C15.962 35.0625 15.8174 34.7732 15.8174 34.4219C15.8174 34.1947 15.9207 33.8227 16.148 33.3268V33.2855L23.256 18.119C23.4833 17.6231 23.6899 17.2925 23.8759 17.1065C24.0618 16.9205 24.2891 16.8379 24.5371 16.8379C24.909 16.8379 25.219 16.9619 25.5082 17.1892C25.7975 17.4164 25.9422 17.7057 25.9422 18.057C25.9422 18.2016 25.9215 18.3463 25.8595 18.5116C25.7975 18.6769 25.7149 18.9042 25.5909 19.1934Z" fill="#75FFBD"/>
<path d="M72.5571 37.8105H87.8683V40.0835H72.5571V37.8105Z" fill="#75FFBD"/>
<path d="M87.4551 37.8105H102.766V40.0835H87.4551V37.8105Z" fill="#75FFBD"/>
<path d="M102.332 37.8105H117.643V40.0835H102.332V37.8105Z" fill="#75FFBD"/>
<path d="M117.209 37.8105H132.52V40.0835H117.209V37.8105Z" fill="#75FFBD"/>
<path d="M132.087 37.8105H147.398V40.0835H132.087V37.8105Z" fill="#75FFBD"/>
<path d="M159.506 19.1934L152.419 34.3806C152.191 34.8559 152.005 35.1865 151.819 35.3724C151.633 35.5584 151.406 35.6411 151.158 35.6411C150.786 35.6411 150.456 35.5171 150.166 35.2898C149.877 35.0625 149.732 34.7732 149.732 34.4219C149.732 34.1947 149.836 33.8227 150.063 33.3268V33.2855L157.171 18.119C157.398 17.6231 157.605 17.2925 157.791 17.1065C157.977 16.9205 158.204 16.8379 158.452 16.8379C158.824 16.8379 159.134 16.9619 159.423 17.1892C159.713 17.4164 159.857 17.7057 159.857 18.057C159.857 18.2016 159.837 18.3463 159.775 18.5116C159.713 18.6769 159.63 18.9042 159.506 19.1934Z" fill="#75FFBD"/>
<path d="M161.841 37.8105H177.152V40.0835H161.841V37.8105Z" fill="#75FFBD"/>
<path d="M176.719 37.8105H192.03V40.0835H176.719V37.8105Z" fill="#75FFBD"/>
<path d="M199.261 29.8555C200.026 29.8555 200.625 30.0621 201.1 30.4754C201.575 30.8886 201.803 31.4465 201.803 32.1284C201.803 32.8102 201.575 33.3475 201.1 33.7607C200.625 34.174 200.026 34.4013 199.261 34.4013C198.497 34.4013 197.918 34.1947 197.443 33.7607C196.968 33.3268 196.74 32.7896 196.74 32.1284C196.74 31.4672 196.968 30.9093 197.443 30.496C197.918 30.0828 198.517 29.8555 199.261 29.8555Z" fill="#75FFBD"/>
<path d="M206.473 37.8105H221.784V40.0835H206.473V37.8105Z" fill="#75FFBD"/>
<path d="M221.37 37.8105H236.681V40.0835H221.37V37.8105Z" fill="#75FFBD"/>
<path d="M243.893 29.8555C244.657 29.8555 245.257 30.0621 245.732 30.4754C246.207 30.8886 246.434 31.4465 246.434 32.1284C246.434 32.8102 246.207 33.3475 245.732 33.7607C245.257 34.174 244.657 34.4013 243.893 34.4013C243.128 34.4013 242.55 34.1947 242.075 33.7607C241.599 33.3268 241.372 32.7896 241.372 32.1284C241.372 31.4672 241.599 30.9093 242.075 30.496C242.55 30.0828 243.149 29.8555 243.893 29.8555Z" fill="#75FFBD"/>
<path d="M266.002 37.8105H281.313V40.0835H266.002V37.8105Z" fill="#75FFBD"/>
<path d="M280.88 37.8105H296.191V40.0835H280.88V37.8105Z" fill="#75FFBD"/>
<path d="M295.757 37.8105H311.068V40.0835H295.757V37.8105Z" fill="#75FFBD"/>
<path d="M310.634 37.8105H325.945V40.0835H310.634V37.8105Z" fill="#75FFBD"/>
<path d="M325.511 37.8105H340.822V40.0835H325.511V37.8105Z" fill="#75FFBD"/>
<path d="M352.951 19.1934L345.864 34.3806C345.637 34.8559 345.451 35.1865 345.265 35.3724C345.079 35.5584 344.851 35.6411 344.603 35.6411C344.232 35.6411 343.901 35.5171 343.612 35.2898C343.322 35.0625 343.178 34.7732 343.178 34.4219C343.178 34.1947 343.281 33.8227 343.508 33.3268V33.2855L350.616 18.119C350.844 17.6231 351.05 17.2925 351.236 17.1065C351.422 16.9205 351.649 16.8379 351.897 16.8379C352.269 16.8379 352.579 16.9619 352.869 17.1892C353.158 17.4164 353.302 17.7057 353.302 18.057C353.302 18.2016 353.282 18.3463 353.22 18.5116C353.158 18.6769 353.075 18.9042 352.951 19.1934Z" fill="#75FFBD"/>
<path d="M391.528 15.0815H393.863V40.3521H391.528V15.0815Z" fill="#75FFBD"/>
<path d="M399.918 37.8105H415.229V40.0835H399.918V37.8105Z" fill="#75FFBD"/>
<path d="M421.283 15.0815H423.618V40.3521H421.283V15.0815Z" fill="#75FFBD"/>
<path d="M465.935 15.0815H468.269V40.3521H465.935V15.0815Z" fill="#75FFBD"/>
<path d="M474.324 37.8105H489.635V40.0835H474.324V37.8105Z" fill="#75FFBD"/>
<path d="M489.202 37.8105H504.513V40.0835H489.202V37.8105Z" fill="#75FFBD"/>
<path d="M525.444 15.0815H527.779V40.3521H525.444V15.0815Z" fill="#75FFBD"/>
<path d="M533.833 37.8105H549.144V40.0835H533.833V37.8105Z" fill="#75FFBD"/>
<path d="M548.71 37.8105H564.021V40.0835H548.71V37.8105Z" fill="#75FFBD"/>
<path d="M570.075 15.0815H572.41V40.3521H570.075V15.0815Z" fill="#75FFBD"/>
<path d="M578.465 37.8105H593.776V40.0835H578.465V37.8105Z" fill="#75FFBD"/>
<path d="M593.363 37.8105H608.674V40.0835H593.363V37.8105Z" fill="#75FFBD"/>
<path d="M608.24 37.8105H623.551V40.0835H608.24V37.8105Z" fill="#75FFBD"/>
<path d="M623.118 37.8105H638.429V40.0835H623.118V37.8105Z" fill="#75FFBD"/>
<path d="M16.1687 48.9478C16.024 48.6586 15.9414 48.4313 15.9 48.266C15.8587 48.1007 15.8174 47.956 15.8174 47.8114C15.8174 47.4601 15.962 47.1708 16.2513 46.9436C16.5406 46.7163 16.8712 46.5923 17.2431 46.5923C17.4911 46.5923 17.6977 46.6749 17.8837 46.8609C18.0696 47.0469 18.2763 47.3775 18.5035 47.8734L25.5909 63.0399C25.7355 63.3292 25.8182 63.5565 25.8595 63.7218C25.9008 63.8871 25.9422 64.0317 25.9422 64.1763C25.9422 64.5069 25.7975 64.7962 25.4876 65.0442C25.1776 65.2921 24.8677 65.3954 24.4958 65.3954C24.2478 65.3954 24.0412 65.3128 23.8552 65.1268C23.6692 64.9409 23.4626 64.6103 23.2353 64.1143L16.148 48.9272L16.1687 48.9478Z" fill="#75FFBD"/>
<path d="M27.9253 67.5652H43.2364V69.8381H27.9253V67.5652Z" fill="#75FFBD"/>
<path d="M42.8027 67.5652H58.1139V69.8381H42.8027V67.5652Z" fill="#75FFBD"/>
<path d="M57.6802 67.5652H72.9913V69.8381H57.6802V67.5652Z" fill="#75FFBD"/>
<path d="M72.5571 67.5652H87.8683V69.8381H72.5571V67.5652Z" fill="#75FFBD"/>
<path d="M87.4551 67.5652H102.766V69.8381H87.4551V67.5652Z" fill="#75FFBD"/>
<path d="M137.004 56.3451L144.877 60.0851C145.311 60.2917 145.641 60.4983 145.807 60.705C145.972 60.9116 146.075 61.1596 146.075 61.4488C146.075 61.7794 145.972 62.0687 145.765 62.2753C145.559 62.482 145.27 62.5853 144.939 62.5853C144.794 62.5853 144.629 62.5646 144.464 62.5026C144.298 62.4406 144.071 62.3787 143.823 62.2547L134.277 57.8535C134.277 57.8535 134.153 57.7915 134.05 57.7502C133.202 57.3576 132.769 56.8824 132.769 56.3658C132.769 55.8492 133.223 55.3533 134.112 54.9401L134.215 54.8781L143.823 50.3942C144.154 50.2496 144.381 50.1463 144.546 50.105C144.712 50.0636 144.836 50.043 144.939 50.043C145.29 50.043 145.559 50.1463 145.765 50.3529C145.972 50.5595 146.075 50.8282 146.075 51.1794C146.075 51.4687 145.993 51.7167 145.807 51.9439C145.621 52.1712 145.311 52.3779 144.877 52.5845L137.004 56.3245V56.3451Z" fill="#75FFBD"/>
<path d="M198.084 44.8359H200.419V70.1065H198.084V44.8359Z" fill="#75FFBD"/>
<path d="M242.735 44.8359H245.07V70.1065H242.735V44.8359Z" fill="#75FFBD"/>
<path d="M263.667 48.9478L256.58 64.135C256.352 64.6103 256.166 64.9409 255.981 65.1268C255.795 65.3128 255.567 65.3954 255.319 65.3954C254.947 65.3954 254.617 65.2715 254.327 65.0442C254.038 64.8169 253.894 64.5276 253.894 64.1763C253.894 63.949 253.997 63.5771 254.224 63.0812V63.0399L261.332 47.8734C261.559 47.3775 261.766 47.0469 261.952 46.8609C262.138 46.6749 262.365 46.5923 262.613 46.5923C262.985 46.5923 263.295 46.7163 263.584 46.9436C263.874 47.1708 264.018 47.4601 264.018 47.8114C264.018 47.956 263.998 48.1007 263.936 48.266C263.874 48.4313 263.791 48.6586 263.667 48.9478Z" fill="#75FFBD"/>
<path d="M328.651 48.9478C328.506 48.6586 328.424 48.4313 328.382 48.266C328.341 48.1007 328.3 47.956 328.3 47.8114C328.3 47.4601 328.444 47.1708 328.734 46.9436C329.023 46.7163 329.354 46.5923 329.726 46.5923C329.973 46.5923 330.18 46.6749 330.366 46.8609C330.552 47.0469 330.759 47.3775 330.986 47.8734L338.073 63.0399C338.218 63.3292 338.301 63.5565 338.342 63.7218C338.383 63.8871 338.425 64.0317 338.425 64.1763C338.425 64.5069 338.28 64.7962 337.97 65.0442C337.66 65.2921 337.35 65.3954 336.978 65.3954C336.73 65.3954 336.524 65.3128 336.338 65.1268C336.152 64.9409 335.945 64.6103 335.718 64.1143L328.63 48.9272L328.651 48.9478Z" fill="#75FFBD"/>
<path d="M385.041 67.5652H400.352V69.8381H385.041V67.5652Z" fill="#75FFBD"/>
<path d="M399.918 67.5652H415.229V69.8381H399.918V67.5652Z" fill="#75FFBD"/>
<path d="M417.916 48.9478C417.771 48.6586 417.688 48.4313 417.647 48.266C417.606 48.1007 417.564 47.956 417.564 47.8114C417.564 47.4601 417.709 47.1708 417.998 46.9436C418.288 46.7163 418.618 46.5923 418.99 46.5923C419.238 46.5923 419.445 46.6749 419.631 46.8609C419.817 47.0469 420.023 47.3775 420.251 47.8734L427.338 63.0399C427.483 63.3292 427.565 63.5565 427.607 63.7218C427.648 63.8871 427.689 64.0317 427.689 64.1763C427.689 64.5069 427.545 64.7962 427.235 65.0442C426.925 65.2921 426.615 65.3954 426.243 65.3954C425.995 65.3954 425.788 65.3128 425.602 65.1268C425.416 64.9409 425.21 64.6103 424.982 64.1143L417.895 48.9272L417.916 48.9478Z" fill="#75FFBD"/>
<path d="M465.935 44.8359H468.269V70.1065H465.935V44.8359Z" fill="#75FFBD"/>
<path d="M507.199 48.9478C507.054 48.6586 506.972 48.4313 506.93 48.266C506.889 48.1007 506.848 47.956 506.848 47.8114C506.848 47.4601 506.992 47.1708 507.282 46.9436C507.571 46.7163 507.901 46.5923 508.273 46.5923C508.521 46.5923 508.728 46.6749 508.914 46.8609C509.1 47.0469 509.307 47.3775 509.534 47.8734L516.621 63.0399C516.766 63.3292 516.848 63.5565 516.89 63.7218C516.931 63.8871 516.972 64.0317 516.972 64.1763C516.972 64.5069 516.828 64.7962 516.518 65.0442C516.208 65.2921 515.898 65.3954 515.526 65.3954C515.278 65.3954 515.071 65.3128 514.885 65.1268C514.7 64.9409 514.493 64.6103 514.266 64.1143L507.178 48.9272L507.199 48.9478Z" fill="#75FFBD"/>
<path d="M525.444 44.8359H527.779V70.1065H525.444V44.8359Z" fill="#75FFBD"/>
<path d="M566.708 48.9478C566.563 48.6586 566.48 48.4313 566.439 48.266C566.398 48.1007 566.356 47.956 566.356 47.8114C566.356 47.4601 566.501 47.1708 566.79 46.9436C567.08 46.7163 567.41 46.5923 567.782 46.5923C568.03 46.5923 568.237 46.6749 568.423 46.8609C568.609 47.0469 568.815 47.3775 569.043 47.8734L576.13 63.0399C576.275 63.3292 576.357 63.5565 576.399 63.7218C576.44 63.8871 576.481 64.0317 576.481 64.1763C576.481 64.5069 576.337 64.7962 576.027 65.0442C575.717 65.2921 575.407 65.3954 575.035 65.3954C574.787 65.3954 574.58 65.3128 574.394 65.1268C574.208 64.9409 574.002 64.6103 573.774 64.1143L566.687 48.9272L566.708 48.9478Z" fill="#75FFBD"/>
<path d="M578.465 67.5652H593.776V69.8381H578.465V67.5652Z" fill="#75FFBD"/>
<path d="M593.363 67.5652H608.674V69.8381H593.363V67.5652Z" fill="#75FFBD"/>
<path d="M641.115 48.9478C640.97 48.6586 640.888 48.4313 640.846 48.266C640.805 48.1007 640.764 47.956 640.764 47.8114C640.764 47.4601 640.908 47.1708 641.198 46.9436C641.487 46.7163 641.817 46.5923 642.189 46.5923C642.437 46.5923 642.644 46.6749 642.83 46.8609C643.016 47.0469 643.223 47.3775 643.45 47.8734L650.537 63.0399C650.682 63.3292 650.764 63.5565 650.806 63.7218C650.847 63.8871 650.888 64.0317 650.888 64.1763C650.888 64.5069 650.744 64.7962 650.434 65.0442C650.124 65.2921 649.814 65.3954 649.442 65.3954C649.194 65.3954 648.987 65.3128 648.802 65.1268C648.616 64.9409 648.409 64.6103 648.182 64.1143L641.094 48.9272L641.115 48.9478Z" fill="#75FFBD"/>
<path d="M25.5909 78.7022L18.5035 93.8894C18.2763 94.3646 18.0903 94.6952 17.9043 94.8812C17.7184 95.0672 17.4911 95.1498 17.2431 95.1498C16.8712 95.1498 16.5406 95.0258 16.2513 94.7985C15.962 94.5713 15.8174 94.282 15.8174 93.9307C15.8174 93.7034 15.9207 93.3315 16.148 92.8356V92.7943L23.256 77.6278C23.4833 77.1319 23.6899 76.8013 23.8759 76.6153C24.0618 76.4293 24.2891 76.3467 24.5371 76.3467C24.909 76.3467 25.219 76.4707 25.5082 76.6979C25.7975 76.9252 25.9422 77.2145 25.9422 77.5658C25.9422 77.7104 25.9215 77.8551 25.8595 78.0204C25.7975 78.1857 25.7149 78.413 25.5909 78.7022Z" fill="#75FFBD"/>
<path d="M150.084 78.7022C149.939 78.413 149.856 78.1857 149.815 78.0204C149.774 77.8551 149.732 77.7104 149.732 77.5658C149.732 77.2145 149.877 76.9252 150.166 76.6979C150.456 76.4707 150.786 76.3467 151.158 76.3467C151.406 76.3467 151.613 76.4293 151.799 76.6153C151.985 76.8013 152.191 77.1319 152.419 77.6278L159.506 92.7943C159.651 93.0835 159.733 93.3108 159.775 93.4761C159.816 93.6414 159.857 93.7861 159.857 93.9307C159.857 94.2613 159.713 94.5506 159.403 94.7985C159.093 95.0465 158.783 95.1498 158.411 95.1498C158.163 95.1498 157.956 95.0672 157.77 94.8812C157.584 94.6952 157.378 94.3646 157.15 93.8687L150.063 78.6816L150.084 78.7022Z" fill="#75FFBD"/>
<path d="M161.841 97.3196H177.152V99.5925H161.841V97.3196Z" fill="#75FFBD"/>
<path d="M176.719 97.3196H192.03V99.5925H176.719V97.3196Z" fill="#75FFBD"/>
<path d="M191.596 97.3196H206.907V99.5925H191.596V97.3196Z" fill="#75FFBD"/>
<path d="M242.735 74.5903H245.07V99.8609H242.735V74.5903Z" fill="#75FFBD"/>
<path d="M302.245 74.5903H304.58V99.8609H302.245V74.5903Z" fill="#75FFBD"/>
<path d="M343.529 78.7022C343.384 78.413 343.302 78.1857 343.26 78.0204C343.219 77.8551 343.178 77.7104 343.178 77.5658C343.178 77.2145 343.322 76.9252 343.612 76.6979C343.901 76.4707 344.232 76.3467 344.603 76.3467C344.851 76.3467 345.058 76.4293 345.244 76.6153C345.43 76.8013 345.637 77.1319 345.864 77.6278L352.951 92.7943C353.096 93.0835 353.179 93.3108 353.22 93.4761C353.261 93.6414 353.302 93.7861 353.302 93.9307C353.302 94.2613 353.158 94.5506 352.848 94.7985C352.538 95.0465 352.228 95.1498 351.856 95.1498C351.608 95.1498 351.402 95.0672 351.216 94.8812C351.03 94.6952 350.823 94.3646 350.596 93.8687L343.508 78.6816L343.529 78.7022Z" fill="#75FFBD"/>
<path d="M391.528 74.5903H393.863V99.8609H391.528V74.5903Z" fill="#75FFBD"/>
<path d="M421.283 74.5903H423.618V99.8609H421.283V74.5903Z" fill="#75FFBD"/>
<path d="M480.193 82.0703L482.073 86.0169L483.871 82.0703H483.829C483.457 82.0703 483.189 81.967 483.003 81.7397C482.817 81.5124 482.713 81.1818 482.713 80.7479C482.713 80.2726 482.817 79.9213 483.003 79.7147C483.189 79.5081 483.54 79.4048 484.015 79.4048H486.784C487.321 79.4048 487.714 79.5081 487.941 79.7147C488.168 79.9213 488.272 80.2726 488.272 80.7479C488.272 81.1818 488.168 81.5124 487.941 81.7397C487.714 81.967 487.404 82.0703 486.97 82.0703H486.784L483.519 88.1245V91.0999H485.11C485.668 91.0999 486.04 91.2032 486.288 91.4099C486.536 91.6165 486.639 91.9471 486.639 92.4017C486.639 92.8562 486.515 93.2075 486.267 93.4348C486.019 93.6621 485.627 93.7654 485.09 93.7654H478.808C478.271 93.7654 477.878 93.6621 477.651 93.4555C477.424 93.2488 477.3 92.8976 477.3 92.4223C477.3 91.9471 477.403 91.6165 477.63 91.4099C477.858 91.2032 478.25 91.1206 478.808 91.1206H480.399V88.4964L476.969 82.0909H476.763C476.349 82.0909 476.019 81.9876 475.812 81.7603C475.605 81.533 475.481 81.2024 475.481 80.7685C475.481 80.2933 475.585 79.942 475.812 79.7354C476.039 79.5288 476.411 79.4254 476.969 79.4254H480.151C480.626 79.4254 480.978 79.5288 481.184 79.7354C481.391 79.942 481.494 80.2933 481.494 80.7685C481.494 81.2024 481.391 81.533 481.205 81.7603C481.019 81.9876 480.73 82.1116 480.379 82.1116H480.213L480.193 82.0703Z" fill="#75FFBD"/>
<path d="M522.077 78.7022C521.932 78.413 521.85 78.1857 521.808 78.0204C521.767 77.8551 521.726 77.7104 521.726 77.5658C521.726 77.2145 521.87 76.9252 522.16 76.6979C522.449 76.4707 522.779 76.3467 523.151 76.3467C523.399 76.3467 523.606 76.4293 523.792 76.6153C523.978 76.8013 524.184 77.1319 524.412 77.6278L531.499 92.7943C531.644 93.0835 531.726 93.3108 531.768 93.4761C531.809 93.6414 531.85 93.7861 531.85 93.9307C531.85 94.2613 531.706 94.5506 531.396 94.7985C531.086 95.0465 530.776 95.1498 530.404 95.1498C530.156 95.1498 529.949 95.0672 529.763 94.8812C529.577 94.6952 529.371 94.3646 529.144 93.8687L522.056 78.6816L522.077 78.7022Z" fill="#75FFBD"/>
<path d="M570.075 74.5903H572.41V99.8609H570.075V74.5903Z" fill="#75FFBD"/>
<path d="M591.007 78.7022L583.92 93.8894C583.692 94.3646 583.506 94.6952 583.32 94.8812C583.134 95.0672 582.907 95.1498 582.659 95.1498C582.287 95.1498 581.957 95.0258 581.667 94.7985C581.378 94.5713 581.233 94.282 581.233 93.9307C581.233 93.7034 581.337 93.3315 581.564 92.8356V92.7943L588.672 77.6278C588.899 77.1319 589.106 76.8013 589.292 76.6153C589.478 76.4293 589.705 76.3467 589.953 76.3467C590.325 76.3467 590.635 76.4707 590.924 76.6979C591.214 76.9252 591.358 77.2145 591.358 77.5658C591.358 77.7104 591.338 77.8551 591.276 78.0204C591.214 78.1857 591.131 78.413 591.007 78.7022Z" fill="#75FFBD"/>
<path d="M608.24 97.3196H623.551V99.5925H608.24V97.3196Z" fill="#75FFBD"/>
<path d="M623.118 97.3196H638.429V99.5925H623.118V97.3196Z" fill="#75FFBD"/>
<path d="M655.991 78.7022C655.846 78.413 655.764 78.1857 655.722 78.0204C655.681 77.8551 655.64 77.7104 655.64 77.5658C655.64 77.2145 655.784 76.9252 656.074 76.6979C656.363 76.4707 656.693 76.3467 657.065 76.3467C657.313 76.3467 657.52 76.4293 657.706 76.6153C657.892 76.8013 658.098 77.1319 658.326 77.6278L665.413 92.7943C665.558 93.0835 665.64 93.3108 665.682 93.4761C665.723 93.6414 665.764 93.7861 665.764 93.9307C665.764 94.2613 665.62 94.5506 665.31 94.7985C665 95.0465 664.69 95.1498 664.318 95.1498C664.07 95.1498 663.863 95.0672 663.677 94.8812C663.491 94.6952 663.285 94.3646 663.058 93.8687L655.97 78.6816L655.991 78.7022Z" fill="#75FFBD"/>
<path d="M667.749 97.3196H683.06V99.5925H667.749V97.3196Z" fill="#75FFBD"/>
<path d="M10.7134 108.457L3.62611 123.644C3.39881 124.119 3.21285 124.45 3.02688 124.636C2.84092 124.822 2.61363 124.904 2.36567 124.904C1.99374 124.904 1.66314 124.78 1.37386 124.553C1.08458 124.326 0.939941 124.036 0.939941 123.685C0.939941 123.458 1.04326 123.086 1.27055 122.59V122.549L8.37855 107.382C8.60584 106.886 8.81247 106.556 8.99843 106.37C9.1844 106.184 9.41169 106.101 9.65964 106.101C10.0316 106.101 10.3415 106.225 10.6308 106.452C10.9201 106.68 11.0647 106.969 11.0647 107.32C11.0647 107.465 11.0441 107.609 10.9821 107.775C10.9201 107.94 10.8374 108.167 10.7134 108.457Z" fill="#75FFBD"/>
<path d="M13.0483 127.074H28.3595V129.347H13.0483V127.074Z" fill="#75FFBD"/>
<path d="M27.9253 127.074H43.2364V129.347H27.9253V127.074Z" fill="#75FFBD"/>
<path d="M42.8027 127.074H58.1139V129.347H42.8027V127.074Z" fill="#75FFBD"/>
<path d="M57.6802 127.074H72.9913V129.347H57.6802V127.074Z" fill="#75FFBD"/>
<path d="M72.5571 127.074H87.8683V129.347H72.5571V127.074Z" fill="#75FFBD"/>
<path d="M87.4551 127.074H102.766V129.347H87.4551V127.074Z" fill="#75FFBD"/>
<path d="M102.332 127.074H117.643V129.347H102.332V127.074Z" fill="#75FFBD"/>
<path d="M159.506 108.457L152.419 123.644C152.191 124.119 152.005 124.45 151.819 124.636C151.633 124.822 151.406 124.904 151.158 124.904C150.786 124.904 150.456 124.78 150.166 124.553C149.877 124.326 149.732 124.036 149.732 123.685C149.732 123.458 149.836 123.086 150.063 122.59V122.549L157.171 107.382C157.398 106.886 157.605 106.556 157.791 106.37C157.977 106.184 158.204 106.101 158.452 106.101C158.824 106.101 159.134 106.225 159.423 106.452C159.713 106.68 159.857 106.969 159.857 107.32C159.857 107.465 159.837 107.609 159.775 107.775C159.713 107.94 159.63 108.167 159.506 108.457Z" fill="#75FFBD"/>
<path d="M176.719 127.074H192.03V129.347H176.719V127.074Z" fill="#75FFBD"/>
<path d="M191.596 127.074H206.907V129.347H191.596V127.074Z" fill="#75FFBD"/>
<path d="M206.473 127.074H221.784V129.347H206.473V127.074Z" fill="#75FFBD"/>
<path d="M221.37 127.074H236.681V129.347H221.37V127.074Z" fill="#75FFBD"/>
<path d="M242.735 104.345H245.07V129.615H242.735V104.345Z" fill="#75FFBD"/>
<path d="M251.125 127.074H266.436V129.347H251.125V127.074Z" fill="#75FFBD"/>
<path d="M266.002 127.074H281.313V129.347H266.002V127.074Z" fill="#75FFBD"/>
<path d="M280.88 127.074H296.191V129.347H280.88V127.074Z" fill="#75FFBD"/>
<path d="M302.245 104.345H304.58V129.615H302.245V104.345Z" fill="#75FFBD"/>
<path d="M352.951 108.457L345.864 123.644C345.637 124.119 345.451 124.45 345.265 124.636C345.079 124.822 344.851 124.904 344.603 124.904C344.232 124.904 343.901 124.78 343.612 124.553C343.322 124.326 343.178 124.036 343.178 123.685C343.178 123.458 343.281 123.086 343.508 122.59V122.549L350.616 107.382C350.844 106.886 351.05 106.556 351.236 106.37C351.422 106.184 351.649 106.101 351.897 106.101C352.269 106.101 352.579 106.225 352.869 106.452C353.158 106.68 353.302 106.969 353.302 107.32C353.302 107.465 353.282 107.609 353.22 107.775C353.158 107.94 353.075 108.167 352.951 108.457Z" fill="#75FFBD"/>
<path d="M355.286 127.074H370.597V129.347H355.286V127.074Z" fill="#75FFBD"/>
<path d="M370.163 127.074H385.474V129.347H370.163V127.074Z" fill="#75FFBD"/>
<path d="M391.528 104.345H393.863V129.615H391.528V104.345Z" fill="#75FFBD"/>
<path d="M421.283 104.345H423.618V129.615H421.283V104.345Z" fill="#75FFBD"/>
<path d="M429.672 127.074H444.983V129.347H429.672V127.074Z" fill="#75FFBD"/>
<path d="M444.55 127.074H459.861V129.347H444.55V127.074Z" fill="#75FFBD"/>
<path d="M459.427 127.074H474.738V129.347H459.427V127.074Z" fill="#75FFBD"/>
<path d="M480.812 104.345H483.147V129.615H480.812V104.345Z" fill="#75FFBD"/>
<path d="M531.499 108.457L524.412 123.644C524.184 124.119 523.999 124.45 523.813 124.636C523.627 124.822 523.399 124.904 523.151 124.904C522.779 124.904 522.449 124.78 522.16 124.553C521.87 124.326 521.726 124.036 521.726 123.685C521.726 123.458 521.829 123.086 522.056 122.59V122.549L529.164 107.382C529.391 106.886 529.598 106.556 529.784 106.37C529.97 106.184 530.197 106.101 530.445 106.101C530.817 106.101 531.127 106.225 531.416 106.452C531.706 106.68 531.85 106.969 531.85 107.32C531.85 107.465 531.83 107.609 531.768 107.775C531.706 107.94 531.623 108.167 531.499 108.457Z" fill="#75FFBD"/>
<path d="M533.833 127.074H549.144V129.347H533.833V127.074Z" fill="#75FFBD"/>
<path d="M548.71 127.074H564.021V129.347H548.71V127.074Z" fill="#75FFBD"/>
<path d="M574.394 108.705C574.56 108.705 574.684 108.767 574.808 108.87C574.932 108.974 574.973 109.118 574.973 109.283C574.973 109.449 574.787 109.862 574.394 110.523C574.105 110.998 573.899 111.37 573.733 111.68C573.072 112.899 572.617 114.036 572.308 115.131C571.998 116.226 571.874 117.342 571.874 118.52C571.874 119.574 571.998 120.586 572.225 121.578C572.452 122.57 572.824 123.561 573.299 124.553C573.547 125.07 573.899 125.69 574.332 126.413C574.766 127.136 574.973 127.591 574.973 127.777C574.973 127.942 574.911 128.066 574.808 128.19C574.704 128.314 574.58 128.355 574.436 128.355C574.126 128.355 573.754 128.211 573.341 127.942C572.927 127.673 572.473 127.26 571.998 126.744C570.902 125.524 570.076 124.223 569.518 122.838C568.96 121.454 568.671 120.028 568.671 118.52C568.671 117.156 568.898 115.854 569.353 114.594C569.807 113.333 570.51 112.135 571.419 110.978C572.018 110.234 572.576 109.655 573.093 109.263C573.609 108.87 574.043 108.664 574.394 108.664V108.705Z" fill="#75FFBD"/>
<path d="M578.465 127.074H593.776V129.347H578.465V127.074Z" fill="#75FFBD"/>
<path d="M593.363 127.074H608.674V129.347H593.363V127.074Z" fill="#75FFBD"/>
<path d="M608.24 127.074H623.551V129.347H608.24V127.074Z" fill="#75FFBD"/>
<path d="M623.118 127.074H638.429V129.347H623.118V127.074Z" fill="#75FFBD"/>
<path d="M680.291 108.457L673.204 123.644C672.976 124.119 672.791 124.45 672.605 124.636C672.419 124.822 672.191 124.904 671.943 124.904C671.571 124.904 671.241 124.78 670.952 124.553C670.662 124.326 670.518 124.036 670.518 123.685C670.518 123.458 670.621 123.086 670.848 122.59V122.549L677.956 107.382C678.183 106.886 678.39 106.556 678.576 106.37C678.762 106.184 678.989 106.101 679.237 106.101C679.609 106.101 679.919 106.225 680.208 106.452C680.498 106.68 680.642 106.969 680.642 107.32C680.642 107.465 680.622 107.609 680.56 107.775C680.498 107.94 680.415 108.167 680.291 108.457Z" fill="#75FFBD"/>
<path d="M120.33 138.211C120.185 137.922 120.102 137.694 120.061 137.529C120.02 137.364 119.979 137.219 119.979 137.075C119.979 136.723 120.123 136.434 120.412 136.207C120.702 135.979 121.032 135.855 121.404 135.855C121.652 135.855 121.859 135.938 122.045 136.124C122.231 136.31 122.437 136.641 122.665 137.137L129.752 152.303C129.897 152.592 129.979 152.82 130.021 152.985C130.062 153.15 130.103 153.295 130.103 153.44C130.103 153.77 129.959 154.059 129.649 154.307C129.339 154.555 129.029 154.659 128.657 154.659C128.409 154.659 128.202 154.576 128.016 154.39C127.83 154.204 127.624 153.873 127.396 153.378L120.309 138.19L120.33 138.211Z" fill="#75FFBD"/>
<path d="M144.629 138.211L137.542 153.398C137.314 153.873 137.128 154.204 136.942 154.39C136.756 154.576 136.529 154.659 136.281 154.659C135.909 154.659 135.579 154.535 135.289 154.307C135 154.08 134.855 153.791 134.855 153.44C134.855 153.212 134.959 152.84 135.186 152.344V152.303L142.294 137.137C142.521 136.641 142.728 136.31 142.914 136.124C143.1 135.938 143.327 135.855 143.575 135.855C143.947 135.855 144.257 135.979 144.546 136.207C144.836 136.434 144.98 136.723 144.98 137.075C144.98 137.219 144.96 137.364 144.898 137.529C144.836 137.694 144.753 137.922 144.629 138.211Z" fill="#75FFBD"/>
<path d="M150.084 138.211C149.939 137.922 149.856 137.694 149.815 137.529C149.774 137.364 149.732 137.219 149.732 137.075C149.732 136.723 149.877 136.434 150.166 136.207C150.456 135.979 150.786 135.855 151.158 135.855C151.406 135.855 151.613 135.938 151.799 136.124C151.985 136.31 152.191 136.641 152.419 137.137L159.506 152.303C159.651 152.592 159.733 152.82 159.775 152.985C159.816 153.15 159.857 153.295 159.857 153.44C159.857 153.77 159.713 154.059 159.403 154.307C159.093 154.555 158.783 154.659 158.411 154.659C158.163 154.659 157.956 154.576 157.77 154.39C157.584 154.204 157.378 153.873 157.15 153.378L150.063 138.19L150.084 138.211Z" fill="#75FFBD"/>
<path d="M174.384 138.211L167.297 153.398C167.069 153.873 166.883 154.204 166.697 154.39C166.511 154.576 166.284 154.659 166.036 154.659C165.664 154.659 165.334 154.535 165.044 154.307C164.755 154.08 164.61 153.791 164.61 153.44C164.61 153.212 164.714 152.84 164.941 152.344V152.303L172.049 137.137C172.276 136.641 172.483 136.31 172.669 136.124C172.855 135.938 173.082 135.855 173.33 135.855C173.702 135.855 174.012 135.979 174.301 136.207C174.59 136.434 174.735 136.723 174.735 137.075C174.735 137.219 174.714 137.364 174.652 137.529C174.59 137.694 174.508 137.922 174.384 138.211Z" fill="#75FFBD"/>
<path d="M313.755 138.211C313.61 137.922 313.527 137.694 313.486 137.529C313.445 137.364 313.403 137.219 313.403 137.075C313.403 136.723 313.548 136.434 313.837 136.207C314.127 135.979 314.457 135.855 314.829 135.855C315.077 135.855 315.284 135.938 315.47 136.124C315.656 136.31 315.862 136.641 316.089 137.137L323.177 152.303C323.321 152.592 323.404 152.82 323.445 152.985C323.487 153.15 323.528 153.295 323.528 153.44C323.528 153.77 323.383 154.059 323.073 154.307C322.764 154.555 322.454 154.659 322.082 154.659C321.834 154.659 321.627 154.576 321.441 154.39C321.255 154.204 321.049 153.873 320.821 153.378L313.734 138.19L313.755 138.211Z" fill="#75FFBD"/>
<path d="M338.054 138.211L330.966 153.398C330.739 153.873 330.553 154.204 330.367 154.39C330.181 154.576 329.954 154.659 329.706 154.659C329.334 154.659 329.003 154.535 328.714 154.307C328.425 154.08 328.28 153.791 328.28 153.44C328.28 153.212 328.384 152.84 328.611 152.344V152.303L335.719 137.137C335.946 136.641 336.153 136.31 336.339 136.124C336.525 135.938 336.752 135.855 337 135.855C337.372 135.855 337.682 135.979 337.971 136.207C338.26 136.434 338.405 136.723 338.405 137.075C338.405 137.219 338.384 137.364 338.322 137.529C338.26 137.694 338.178 137.922 338.054 138.211Z" fill="#75FFBD"/>
<path d="M492.322 138.211C492.177 137.922 492.095 137.694 492.053 137.529C492.012 137.364 491.971 137.219 491.971 137.075C491.971 136.723 492.115 136.434 492.405 136.207C492.694 135.979 493.025 135.855 493.396 135.855C493.644 135.855 493.851 135.938 494.037 136.124C494.223 136.31 494.43 136.641 494.657 137.137L501.744 152.303C501.889 152.592 501.971 152.82 502.013 152.985C502.054 153.15 502.095 153.295 502.095 153.44C502.095 153.77 501.951 154.059 501.641 154.307C501.331 154.555 501.021 154.659 500.649 154.659C500.401 154.659 500.194 154.576 500.009 154.39C499.823 154.204 499.616 153.873 499.389 153.378L492.301 138.19L492.322 138.211Z" fill="#75FFBD"/>
<path d="M516.621 138.211L509.534 153.398C509.307 153.873 509.121 154.204 508.935 154.39C508.749 154.576 508.521 154.659 508.273 154.659C507.901 154.659 507.571 154.535 507.282 154.307C506.992 154.08 506.848 153.791 506.848 153.44C506.848 153.212 506.951 152.84 507.178 152.344V152.303L514.286 137.137C514.514 136.641 514.72 136.31 514.906 136.124C515.092 135.938 515.319 135.855 515.567 135.855C515.939 135.855 516.249 135.979 516.539 136.207C516.828 136.434 516.972 136.723 516.972 137.075C516.972 137.219 516.952 137.364 516.89 137.529C516.828 137.694 516.745 137.922 516.621 138.211Z" fill="#75FFBD"/>
<path d="M641.115 138.211C640.97 137.922 640.888 137.694 640.846 137.529C640.805 137.364 640.764 137.219 640.764 137.075C640.764 136.723 640.908 136.434 641.198 136.207C641.487 135.979 641.817 135.855 642.189 135.855C642.437 135.855 642.644 135.938 642.83 136.124C643.016 136.31 643.223 136.641 643.45 137.137L650.537 152.303C650.682 152.592 650.764 152.82 650.806 152.985C650.847 153.15 650.888 153.295 650.888 153.44C650.888 153.77 650.744 154.059 650.434 154.307C650.124 154.555 649.814 154.659 649.442 154.659C649.194 154.659 648.987 154.576 648.802 154.39C648.616 154.204 648.409 153.873 648.182 153.378L641.094 138.19L641.115 138.211Z" fill="#75FFBD"/>
<path d="M665.413 138.211L658.326 153.398C658.098 153.873 657.913 154.204 657.727 154.39C657.541 154.576 657.313 154.659 657.065 154.659C656.693 154.659 656.363 154.535 656.074 154.307C655.784 154.08 655.64 153.791 655.64 153.44C655.64 153.212 655.743 152.84 655.97 152.344V152.303L663.078 137.137C663.306 136.641 663.512 136.31 663.698 136.124C663.884 135.938 664.111 135.855 664.359 135.855C664.731 135.855 665.041 135.979 665.331 136.207C665.62 136.434 665.764 136.723 665.764 137.075C665.764 137.219 665.744 137.364 665.682 137.529C665.62 137.694 665.537 137.922 665.413 138.211Z" fill="#75FFBD"/>
</g>
<defs>
<clipPath id="clip0_5_625">
<rect width="682.12" height="154.578" fill="white" transform="translate(0.939941 0.101074)"/>
</clipPath>
</defs>
</svg>
