<svg width="548" height="102" viewBox="0 0 548 102" fill="none" xmlns="http://www.w3.org/2000/svg">
<g clip-path="url(#clip0_5_353)">
<path d="M201.171 14.4153H196.907C194.398 14.4153 184.218 14.4153 180.455 14.4743V1.16559H236.862V14.4743C233.1 14.4153 228.57 14.4153 226.062 14.4153H216.132V35.7064C216.132 39.8524 216.132 42.9362 216.191 45.7543H201.112C201.171 42.9952 201.171 39.9115 201.171 35.7064V14.4153Z" fill="#FFFCDF"/>
<path d="M240.669 8.70525C240.669 5.69529 240.669 3.36404 240.61 1.16559H290.348V13.0284C282.189 12.9694 269.943 12.9694 261.149 12.9694H255.616V17.6171H287.456V28.7274C271.758 28.6684 270.562 28.6684 263.657 28.6684H255.616V33.9506H261.769C270.562 33.9506 281.864 33.9506 291.101 33.8916V45.7691H240.61C240.669 43.069 240.669 39.9262 240.669 35.7211V8.70525Z" fill="#FFFCDF"/>
<path d="M295.247 24.4633V22.4567C295.247 5.68056 300.839 0.280334 324.948 0.280334C349.057 0.280334 354.281 3.86573 354.03 20.0664L339.142 20.3172C339.142 15.3597 338.257 13.2792 324.697 13.2792C311.949 13.2792 310.621 15.035 310.621 23.3272V23.578C310.621 31.8112 312.185 33.626 324.948 33.626C338.331 33.626 339.275 31.3685 339.275 26.588L354.163 26.8388C354.413 42.5969 349.131 46.6249 324.963 46.6249C300.795 46.6249 295.262 41.1656 295.262 24.4486L295.247 24.4633Z" fill="#FFFCDF"/>
<path d="M359.74 35.7064V8.70525C359.74 5.69529 359.74 3.42306 359.681 1.16559H374.76C374.701 3.49683 374.701 5.56249 374.701 8.70525V16.4367H402.204V8.70525C402.204 5.69529 402.204 3.42306 402.145 1.16559H417.224C417.165 3.49683 417.165 5.56249 417.165 8.70525V35.7064C417.165 39.8524 417.165 42.9362 417.224 45.7543H402.145C402.204 42.9952 402.204 39.9115 402.204 35.7064V29.2438H374.701V35.7064C374.701 39.8524 374.701 42.9362 374.76 45.7543H359.681C359.74 42.9952 359.74 39.9115 359.74 35.7064Z" fill="#FFFCDF"/>
<path d="M424.291 36.149V9.07412C424.291 5.87234 424.291 3.48208 424.232 1.16559H448.032L458.463 18.5614C461.665 23.9026 464.557 28.9192 466.815 32.8144H467.626C467.493 27.606 467.375 17.6761 467.375 14.6662C467.375 10.2692 467.375 6.12317 467.316 1.16559H481.761C481.702 3.49683 481.702 5.87234 481.702 9.07412V35.2637C481.702 39.9705 481.702 42.6706 481.761 45.7543H458.021L448.165 29.3028C444.83 23.7698 441.82 18.6942 439.179 14.1055H438.426C438.485 21.0697 438.618 29.8045 438.618 32.2538C438.618 36.6507 438.618 40.7377 438.677 45.7543H424.232C424.291 42.9952 424.291 40.1623 424.291 36.149Z" fill="#FFFCDF"/>
<path d="M487.412 24.4633V22.4567C487.412 5.68056 493.004 0.280334 517.246 0.280334C541.488 0.280334 547.08 5.68056 547.08 22.4567V24.4633C547.08 41.1657 541.547 46.6397 517.246 46.6397C492.945 46.6397 487.412 41.1804 487.412 24.4633ZM531.691 23.578V23.3272C531.691 15.0941 530.186 13.3383 517.246 13.3383C504.306 13.3383 502.801 15.0941 502.801 23.3272V23.578C502.801 31.8112 504.365 33.626 517.246 33.626C530.127 33.626 531.691 31.8112 531.691 23.578Z" fill="#FFFCDF"/>
<path d="M180.514 63.3863C180.514 60.3763 180.514 58.0451 180.455 55.8466H229.824V68.4029C219.142 68.3439 214.184 68.3439 205.391 68.3439H195.461V75.3229H227.183V87.3184C219.024 87.2594 211.676 87.2594 204.756 87.2594H195.461V90.4022C195.461 94.5483 195.461 97.632 195.52 100.45H180.44C180.499 97.691 180.499 94.6073 180.499 90.4022V63.401L180.514 63.3863Z" fill="#FFFCDF"/>
<path d="M291.425 63.5043V68.152C291.425 71.162 291.484 75.8097 291.484 80.7821C291.484 96.8057 286.777 101.321 262.963 101.321C239.149 101.321 234.442 96.8647 234.442 80.7821C234.442 75.7655 234.501 71.103 234.501 68.093V63.5633C234.501 60.4796 234.501 57.9123 234.442 55.8318H249.522C249.463 57.7795 249.463 60.4206 249.463 63.4305V80.0148C249.463 87.1118 251.351 88.307 262.963 88.307C274.575 88.307 276.464 87.1118 276.464 80.0148V63.4305C276.464 60.3468 276.464 57.7205 276.405 55.8318H291.484C291.425 57.9123 291.425 60.4206 291.425 63.4895V63.5043Z" fill="#FFFCDF"/>
<path d="M295.881 86.0495L310.886 85.7987V86.9938C310.886 89.2513 311.772 89.8267 324.136 89.8267C336.501 89.8267 336.515 89.2661 336.515 87.2447V86.9348C336.515 85.12 335.32 84.2347 319.68 83.4822C299.584 82.4789 296.132 79.1443 296.132 69.2291C296.132 59.9337 300.219 54.9761 322.882 54.9761C347.935 54.9761 350.016 59.8156 350.016 69.9226L335.01 70.1734V69.1111C335.01 67.1635 333.697 66.352 323.015 66.352C312.332 66.352 311.137 66.9126 311.137 68.5504C311.137 70.3062 312.273 70.8079 327.84 71.6342C348.186 72.6965 351.462 77.2852 351.462 86.3299C351.462 96.3778 347.758 101.335 324.461 101.335C299.717 101.335 295.881 98.3255 295.881 86.079V86.0495Z" fill="#FFFCDF"/>
<path d="M356.538 63.3863C356.538 60.3763 356.538 58.1041 356.479 55.8466H371.558C371.499 58.1779 371.499 60.2435 371.499 63.3863V90.3874C371.499 94.5335 371.499 97.6172 371.558 100.435H356.479C356.538 97.6762 356.538 94.5925 356.538 90.3874V63.3863Z" fill="#FFFCDF"/>
<path d="M377.194 79.1443V77.1377C377.194 60.3615 382.786 54.9613 407.028 54.9613C431.27 54.9613 436.862 60.3615 436.862 77.1377V79.1443C436.862 95.8466 431.329 101.321 407.028 101.321C382.727 101.321 377.194 95.8614 377.194 79.1443ZM421.473 78.259V78.0082C421.473 69.775 419.968 68.0192 407.028 68.0192C394.088 68.0192 392.584 69.775 392.584 78.0082V78.259C392.584 86.4921 394.147 88.307 407.028 88.307C419.909 88.307 421.473 86.4921 421.473 78.259Z" fill="#FFFCDF"/>
<path d="M442.573 90.83V63.7551C442.573 60.5534 442.573 58.1631 442.514 55.8466H466.313L476.745 73.2424C479.946 78.5836 482.838 83.6002 485.096 87.4955H485.907C485.774 82.2871 485.656 72.3571 485.656 69.3472C485.656 64.9503 485.656 60.8042 485.597 55.8466H500.042C499.983 58.1779 499.983 60.5534 499.983 63.7551V89.9448C499.983 94.6515 499.983 97.3516 500.042 100.435H476.302L466.446 83.9839C463.111 78.4508 460.101 73.3752 457.46 68.7865H456.708C456.767 75.7507 456.9 84.4855 456.9 86.9348C456.9 91.3317 456.899 95.4188 456.958 100.435H442.514C442.573 97.6762 442.573 94.8433 442.573 90.83Z" fill="#FFFCDF"/>
<path d="M112.465 0H16.4714C7.88254 0 0.919922 6.95932 0.919922 15.5441C0.919922 24.1288 7.88254 31.0882 16.4714 31.0882H112.465C121.054 31.0882 128.017 24.1288 128.017 15.5441C128.017 6.95932 121.054 0 112.465 0Z" fill="#FFFCDF"/>
<path d="M93.1368 35.249H35.7853C27.1965 35.249 20.2339 42.2083 20.2339 50.7931C20.2339 59.3779 27.1965 66.3372 35.7853 66.3372H93.1368C101.726 66.3372 108.688 59.3779 108.688 50.7931C108.688 42.2083 101.726 35.249 93.1368 35.249Z" fill="#FFFCDF"/>
<path d="M71.0347 70.5127H57.903C49.3142 70.5127 42.3516 77.472 42.3516 86.0568C42.3516 94.6415 49.3142 101.601 57.903 101.601H71.0347C79.6236 101.601 86.5862 94.6415 86.5862 86.0568C86.5862 77.472 79.6236 70.5127 71.0347 70.5127Z" fill="#FFFCDF"/>
</g>
<defs>
<clipPath id="clip0_5_353">
<rect width="546.16" height="101.601" fill="white" transform="translate(0.919922)"/>
</clipPath>
</defs>
</svg>
